<svg width="23" height="28" viewBox="0 0 23 28" fill="none" xmlns="http://www.w3.org/2000/svg">
<path d="M22.9866 26.8306L21.2956 7.85593C21.2495 7.33775 20.8184 6.94084 20.3022 6.94084H16.8151V5.35615C16.8151 2.40277 14.4306 0 11.4996 0C8.56878 0 6.18454 2.40277 6.18454 5.35615V6.94084H2.69503C2.17877 6.94084 1.74775 7.33775 1.7016 7.85593L0.00398821 26.9052C-0.0210138 27.1863 0.0723447 27.4649 0.261323 27.6732C0.450301 27.8814 0.717477 28 0.99742 28H22.0026C22.5536 28 23 27.55 23 26.995C22.9999 26.9391 22.9953 26.884 22.9866 26.8306ZM8.17938 5.35615C8.17938 3.51109 9.66887 2.01001 11.4997 2.01001C13.3307 2.01001 14.8203 3.51109 14.8203 5.35615V6.94084H8.17938V5.35615ZM2.08847 25.9901L3.60694 8.95085H6.18454V10.7481C6.18454 11.3031 6.63099 11.7531 7.18196 11.7531C7.73294 11.7531 8.17938 11.3031 8.17938 10.7481V8.95085H14.8203V10.7481C14.8203 11.3031 15.2668 11.7531 15.8178 11.7531C16.3687 11.7531 16.8152 11.3031 16.8152 10.7481V8.95085H19.3904L20.9089 25.9901H2.08847Z" fill="white"/>
<path d="M19 19.429C19 19.429 17.1394 18.3546 14.8441 18.3546C14.721 18.3546 14.5993 18.3579 14.4789 18.3638C14.6712 18.2076 14.8609 18.0383 15.0445 17.8547C16.6675 16.2317 17.1883 14.1212 17.1883 14.1212C17.1883 14.1212 15.0778 14.642 13.4548 16.265C13.1654 16.5543 12.9113 16.8591 12.6888 17.1647C12.8093 16.4793 12.8885 15.7308 12.8885 14.9468C12.8885 11.6625 11.5 9 11.5 9C11.5 9 10.1115 11.6625 10.1115 14.9468C10.1115 15.7309 10.1908 16.4793 10.3112 17.1647C10.0887 16.8591 9.83453 16.5543 9.54525 16.265C7.92224 14.642 5.81172 14.1212 5.81172 14.1212C5.81172 14.1212 6.33256 16.2317 7.95552 17.8547C8.13906 18.0382 8.32885 18.2075 8.52112 18.3638C8.40077 18.3579 8.27901 18.3546 8.15594 18.3546C5.86064 18.3546 4 19.429 4 19.429C4 19.429 5.86064 20.5033 8.15591 20.5033C8.6655 20.5033 9.15344 20.4502 9.60455 20.3677C9.58662 20.385 9.56878 20.4024 9.55108 20.4201C8.47337 21.4978 8.25364 23.0255 8.25364 23.0255C8.25364 23.0255 9.78127 22.8057 10.859 21.728C10.9118 21.6752 10.9621 21.621 11.0109 21.5662V24H11.9891V21.5662C12.0379 21.621 12.0882 21.6752 12.141 21.7281C13.2188 22.8058 14.7464 23.0255 14.7464 23.0255C14.7464 23.0255 14.5267 21.4979 13.4489 20.4202C13.4312 20.4025 13.4134 20.385 13.3955 20.3678C13.8466 20.4502 14.3345 20.5033 14.8441 20.5033C17.1394 20.5033 19 19.429 19 19.429Z" fill="white"/>
</svg>
