<svg width="24" height="22" viewBox="0 0 24 22" fill="none" xmlns="http://www.w3.org/2000/svg">
<path d="M23.0611 2.0111H8.76248C8.36937 0.843546 7.26502 0 5.9666 0C4.66817 0 3.56382 0.843546 3.17071 2.0111H0.938803C0.420333 2.0111 0 2.43144 0 2.94991C0 3.46838 0.420333 3.88871 0.938803 3.88871H3.17078C3.56388 5.05627 4.66823 5.89981 5.96666 5.89981C7.26508 5.89981 8.36943 5.05627 8.76254 3.88871H23.0612C23.5797 3.88871 24 3.46838 24 2.94991C24 2.43144 23.5797 2.0111 23.0611 2.0111ZM5.9666 4.02221C5.37534 4.02221 4.89429 3.54117 4.89429 2.94991C4.89429 2.35865 5.37534 1.87761 5.9666 1.87761C6.55785 1.87761 7.0389 2.35865 7.0389 2.94991C7.0389 3.54117 6.55785 4.02221 5.9666 4.02221Z" fill="#009BDB"/>
<path d="M23.0611 10.0553H20.8292C20.4361 8.88773 19.3316 8.04419 18.0333 8.04419C16.7349 8.04419 15.6306 8.88773 15.2375 10.0553H0.938803C0.420333 10.0553 0 10.4756 0 10.9941C0 11.5126 0.420333 11.9329 0.938803 11.9329H15.2375C15.6306 13.1005 16.735 13.944 18.0333 13.944C19.3317 13.944 20.4361 13.1005 20.8292 11.9329H23.0612C23.5797 11.9329 24 11.5126 24 10.9941C24 10.4756 23.5797 10.0553 23.0611 10.0553ZM18.0333 12.0664C17.4421 12.0664 16.961 11.5854 16.961 10.9941C16.961 10.4028 17.4421 9.92179 18.0333 9.92179C18.6246 9.92179 19.1056 10.4028 19.1056 10.9941C19.1056 11.5854 18.6246 12.0664 18.0333 12.0664Z" fill="#009BDB"/>
<path d="M23.0611 18.0995H12.7847C12.3916 16.9319 11.2873 16.0884 9.98886 16.0884C8.69044 16.0884 7.58609 16.9319 7.19299 18.0995H0.938803C0.420333 18.0995 0 18.5198 0 19.0383C0 19.5567 0.420333 19.9771 0.938803 19.9771H7.19299C7.58609 21.1446 8.69044 21.9882 9.98886 21.9882C11.2873 21.9882 12.3916 21.1446 12.7847 19.9771H23.0612C23.5797 19.9771 24 19.5567 24 19.0383C24 18.5198 23.5797 18.0995 23.0611 18.0995ZM9.98886 20.1106C9.39761 20.1106 8.91656 19.6296 8.91656 19.0383C8.91656 18.4471 9.39761 17.966 9.98886 17.966C10.5801 17.966 11.0612 18.447 11.0612 19.0383C11.0612 19.6295 10.5801 20.1106 9.98886 20.1106Z" fill="#009BDB"/>
</svg>
