<svg width="29" height="29" viewBox="0 0 29 29" fill="none" xmlns="http://www.w3.org/2000/svg">
<path d="M28.9263 8.52611C28.8583 6.98522 28.6091 5.92587 28.2521 5.00794C27.8838 4.03357 27.3172 3.16122 26.5748 2.43603C25.8495 1.69956 24.9712 1.12728 24.0079 0.7648C23.0845 0.407849 22.0305 0.158669 20.4893 0.0907315C18.9366 0.0170398 18.4437 0 14.5056 0C10.5676 0 10.0747 0.0170398 8.52773 0.0849778C6.98655 0.152916 5.927 0.402317 5.00911 0.759046C4.03434 1.12728 3.16182 1.6938 2.4365 2.43603C1.69988 3.16122 1.12772 4.03932 0.764946 5.0024C0.407927 5.92587 0.1587 6.97947 0.0907488 8.52035C0.0170431 10.0727 0 10.5656 0 14.5029C0 18.4402 0.0170431 18.933 0.084994 20.4797C0.152945 22.0205 0.402394 23.0799 0.759413 23.9978C1.12772 24.9722 1.69988 25.8445 2.4365 26.5697C3.16182 27.3062 4.04009 27.8785 5.00336 28.241C5.927 28.5979 6.9808 28.8471 8.5222 28.915C10.0689 28.9832 10.5621 29 14.5001 29C18.4382 29 18.9311 28.9832 20.478 28.915C22.0192 28.8471 23.0788 28.5979 23.9966 28.241C25.946 27.4874 27.4872 25.9466 28.2408 23.9978C28.5976 23.0743 28.8471 22.0205 28.915 20.4797C28.983 18.933 29 18.4402 29 14.5029C29 10.5656 28.9942 10.0727 28.9263 8.52611ZM26.3143 20.3663C26.2519 21.7826 26.0139 22.5474 25.8156 23.0573C25.3282 24.3207 24.3253 25.3234 23.0617 25.8107C22.5517 26.009 21.7813 26.2469 20.3702 26.309C18.8403 26.3772 18.3815 26.394 14.5114 26.394C10.6413 26.394 10.1767 26.3772 8.65235 26.309C7.23578 26.2469 6.47083 26.009 5.96087 25.8107C5.33205 25.5783 4.75966 25.2101 4.29507 24.7285C3.81344 24.2583 3.44513 23.6918 3.21273 23.0631C3.01441 22.5532 2.77647 21.7826 2.71427 20.3721C2.6461 18.8425 2.62928 18.3835 2.62928 14.5142C2.62928 10.6448 2.6461 10.1803 2.71427 8.65645C2.77647 7.24015 3.01441 6.47535 3.21273 5.96549C3.44513 5.33656 3.81344 4.76451 4.30083 4.29979C4.77095 3.81825 5.33758 3.45001 5.96662 3.21787C6.47659 3.01959 7.24729 2.78169 8.6581 2.71929C10.188 2.65135 10.647 2.63431 14.5169 2.63431C18.3928 2.63431 18.8516 2.65135 20.376 2.71929C21.7926 2.78169 22.5575 3.01959 23.0675 3.21787C23.6963 3.45001 24.2687 3.81825 24.7333 4.29979C25.2149 4.77004 25.5832 5.33656 25.8156 5.96549C26.0139 6.47535 26.2519 7.24569 26.3143 8.65645C26.3822 10.186 26.3993 10.6448 26.3993 14.5142C26.3993 18.3835 26.3822 18.8367 26.3143 20.3663Z" fill="#DDDDDD"/>
<path d="M14.5056 7.05316C10.3921 7.05316 7.0545 10.3899 7.0545 14.5029C7.0545 18.6159 10.3921 21.9526 14.5056 21.9526C18.6194 21.9526 21.9568 18.6159 21.9568 14.5029C21.9568 10.3899 18.6194 7.05316 14.5056 7.05316ZM14.5056 19.3353C11.837 19.3353 9.67227 17.1713 9.67227 14.5029C9.67227 11.8345 11.837 9.67043 14.5056 9.67043C17.1745 9.67043 19.339 11.8345 19.339 14.5029C19.339 17.1713 17.1745 19.3353 14.5056 19.3353Z" fill="#DDDDDD"/>
<path d="M23.9911 6.75861C23.9911 7.71904 23.2122 8.49778 22.2514 8.49778C21.2908 8.49778 20.5119 7.71904 20.5119 6.75861C20.5119 5.79796 21.2908 5.01944 22.2514 5.01944C23.2122 5.01944 23.9911 5.79796 23.9911 6.75861Z" fill="#DDDDDD"/>
</svg>
