<svg width="116" height="68" viewBox="0 0 116 68" fill="none" xmlns="http://www.w3.org/2000/svg">
<path d="M17.7344 8.09375C17.7344 6.02083 16.3646 4.98438 13.625 4.98438C11.9062 4.98438 10.1667 5.50521 8.40625 6.54688C7.89583 6.84896 7.49479 7.13021 7.20312 7.39062C6.92188 7.64062 6.65104 7.76562 6.39062 7.76562C6.13021 7.76562 5.88021 7.70312 5.64062 7.57812C5.40104 7.44271 5.1875 7.27604 5 7.07812C4.3125 6.31771 4.38542 5.58333 5.21875 4.875C6.46875 3.80208 8.54167 3.10938 11.4375 2.79688C12.0208 2.73438 12.7604 2.70312 13.6562 2.70312C14.5521 2.70312 15.4948 2.86458 16.4844 3.1875C17.4844 3.51042 18.3229 3.94792 19 4.5C20.3542 5.61458 21.0312 7.03646 21.0312 8.76562C21.0312 10.8177 20.0938 12.6875 18.2188 14.375C16.5938 15.8542 14.6719 16.9115 12.4531 17.5469C13.0573 18.0469 13.625 18.7656 14.1562 19.7031L15.4062 21.9375C16.5 23.9688 17.4792 25.0729 18.3438 25.25C18.6458 25.3021 18.9583 25.2917 19.2812 25.2188C19.6042 25.1458 19.8125 25.1146 19.9062 25.125C20.0104 25.125 20.0781 25.2083 20.1094 25.375C20.151 25.5417 20.1094 25.75 19.9844 26C19.8594 26.25 19.6562 26.4844 19.375 26.7031C18.7188 27.224 18 27.4531 17.2188 27.3906C16.4375 27.3385 15.8021 27.1823 15.3125 26.9219C14.8333 26.651 14.401 26.3125 14.0156 25.9062C13.6406 25.5 13.3021 25.0469 13 24.5469C12.7083 24.0469 12.4375 23.5365 12.1875 23.0156L11.4844 21.4844C11.2656 20.9844 11.0625 20.5573 10.875 20.2031C10.6875 19.8385 10.526 19.5104 10.3906 19.2188C10.2552 18.9167 10.1042 18.6458 9.9375 18.4062C9.58333 17.8646 9.13021 17.5208 8.57812 17.375C6.39062 23 4.16667 26.2083 1.90625 27C1.71875 27.0729 1.52604 27.1094 1.32812 27.1094C1.14062 27.1094 0.96875 27.0729 0.8125 27C0.65625 26.9375 0.526042 26.8542 0.421875 26.75C0.203125 26.5521 0.09375 26.3333 0.09375 26.0938C0.09375 25.8542 0.171875 25.6771 0.328125 25.5625C1.89062 24.4271 3.625 21.1146 5.53125 15.625L6.46875 12.9844C7.54167 9.94271 8.44792 8.06771 9.1875 7.35938C9.44792 7.16146 9.71875 7.0625 10 7.0625C10.2812 7.0625 10.526 7.10938 10.7344 7.20312C10.9427 7.28646 11.125 7.39583 11.2812 7.53125C11.6354 7.84375 11.8125 8.16146 11.8125 8.48438C11.8125 8.80729 11.7396 9.09896 11.5938 9.35938C11.4583 9.60938 11.3021 9.96354 11.125 10.4219C10.6146 11.7552 10.2188 12.8229 9.9375 13.625L9.14062 15.875C11.3594 15.5833 13.3229 14.7135 15.0312 13.2656C16.8333 11.7448 17.7344 10.0208 17.7344 8.09375ZM22.2188 21.5312C22.2604 20.625 22.4115 19.7604 22.6719 18.9375C22.9323 18.1042 23.2812 17.3021 23.7188 16.5312C24.1562 15.75 24.6667 15.0156 25.25 14.3281C25.8438 13.6302 26.4844 13.0208 27.1719 12.5C28.6615 11.3854 30.1667 10.8281 31.6875 10.8281C33.4688 10.8281 34.6562 11.5625 35.25 13.0312C35.4583 13.5312 35.5573 14.125 35.5469 14.8125C35.5365 15.4896 35.4062 16.1198 35.1562 16.7031C34.9062 17.276 34.5573 17.8021 34.1094 18.2812C33.6719 18.75 33.1458 19.1719 32.5312 19.5469C31.9271 19.9219 31.2656 20.2396 30.5469 20.5C29.0677 21.0208 27.4844 21.2917 25.7969 21.3125C25.7552 21.4583 25.7292 21.6771 25.7188 21.9688C25.7083 22.2604 25.7396 22.5885 25.8125 22.9531C25.8854 23.3073 26.0104 23.625 26.1875 23.9062C26.5625 24.5312 27.1042 24.8438 27.8125 24.8438C29.0208 24.8438 30.1979 24.4896 31.3438 23.7812C31.75 23.5417 32.0781 23.2969 32.3281 23.0469C32.5885 22.7865 32.8125 22.6562 33 22.6562C33.1875 22.6562 33.349 22.7708 33.4844 23C33.6302 23.2188 33.7031 23.4688 33.7031 23.75C33.7031 24.3021 33.5469 24.7812 33.2344 25.1875C31.9219 26.5 29.9688 27.1562 27.375 27.1562C25.8438 27.1562 24.6146 26.6979 23.6875 25.7812C22.6458 24.7396 22.1562 23.3229 22.2188 21.5312ZM31.3438 12.9062C30.25 12.9062 29.1979 13.6562 28.1875 15.1562C27.3333 16.4479 26.6458 17.9792 26.125 19.75C27.8646 19.5729 29.375 18.8854 30.6562 17.6875C31.8333 16.5625 32.4219 15.4844 32.4219 14.4531C32.4219 13.4219 32.0625 12.9062 31.3438 12.9062ZM37.9219 26.375C37.6615 26.1042 37.4479 25.7604 37.2812 25.3438C37.125 24.9167 37.0469 24.4271 37.0469 23.875C37.0469 23.3125 37.1719 22.5625 37.4219 21.625C37.6823 20.6875 38.0104 19.6198 38.4062 18.4219L39.7188 14.5312C41.5833 9.11458 42.6615 4.92708 42.9531 1.96875C43.0469 1.09375 43.474 0.65625 44.2344 0.65625C44.7135 0.65625 45.1094 0.770833 45.4219 1C46.026 1.45833 46.3177 1.96875 46.2969 2.53125C46.276 3.09375 46.1771 3.78125 46 4.59375C45.8229 5.39583 45.5938 6.27604 45.3125 7.23438C45.0312 8.18229 44.7083 9.1875 44.3438 10.25L42.1875 16.5938C40.9479 20.1979 40.3281 22.526 40.3281 23.5781C40.3281 24.1406 40.5573 24.4219 41.0156 24.4219C41.4531 24.4219 41.849 24.3281 42.2031 24.1406C42.5677 23.9531 42.8021 23.8594 42.9062 23.8594C43.125 23.8594 43.2344 23.9688 43.2344 24.1875C43.2344 25.1146 42.7604 25.8906 41.8125 26.5156C41.1771 26.9427 40.5938 27.1562 40.0625 27.1562C39.5417 27.1562 39.1198 27.0938 38.7969 26.9688C38.474 26.8438 38.1823 26.6458 37.9219 26.375ZM58.1562 22.8438C58.1562 23.8021 58.4948 24.2812 59.1719 24.2812C59.6406 24.2812 60.026 24.2083 60.3281 24.0625C60.6406 23.9167 60.849 23.8438 60.9531 23.8438C61.1719 23.8438 61.2812 23.9583 61.2812 24.1875C61.2812 25.0833 60.8125 25.8542 59.875 26.5C58.8854 27.1771 57.875 27.3438 56.8438 27C56.1667 26.7604 55.6667 26.2448 55.3438 25.4531C55.1875 25.0469 55.1094 24.6771 55.1094 24.3438C55.1094 23.8021 55.1615 23.2292 55.2656 22.625C54.2969 24.6042 53.0938 25.9688 51.6562 26.7188C51.0833 27.0104 50.474 27.1562 49.8281 27.1562C49.1823 27.1562 48.6198 27.026 48.1406 26.7656C47.6719 26.4948 47.2708 26.125 46.9375 25.6562C46.2604 24.6771 45.9531 23.4479 46.0156 21.9688C46.0781 20.1146 46.625 18.2969 47.6562 16.5156C48.6042 14.849 49.8021 13.4896 51.25 12.4375C52.6979 11.3646 54.0521 10.8281 55.3125 10.8281C56.5729 10.8281 57.5885 11.4062 58.3594 12.5625C59.0781 11.4062 59.7135 10.8281 60.2656 10.8281C60.8594 10.8281 61.3073 10.9375 61.6094 11.1562C62.1823 11.5729 62.3854 11.9375 62.2188 12.25C59.6042 17.6042 58.2604 20.9375 58.1875 22.25C58.1667 22.4375 58.1562 22.6354 58.1562 22.8438ZM49.4844 22.9062C49.4844 24.1562 49.8854 24.7812 50.6875 24.7812C51.3021 24.7812 52.0573 24.2604 52.9531 23.2188C54.2656 21.6875 55.4271 19.625 56.4375 17.0312C56.7604 16.2188 57.0312 15.4062 57.25 14.5938C57.2083 13.8854 56.9115 13.3646 56.3594 13.0312C56.1719 12.9167 55.8906 12.8594 55.5156 12.8594C55.151 12.8594 54.7188 12.9948 54.2188 13.2656C53.7292 13.5365 53.25 13.9062 52.7812 14.375C52.3229 14.8438 51.8906 15.401 51.4844 16.0469C51.0885 16.6823 50.7396 17.375 50.4375 18.125C49.8021 19.7292 49.4844 21.3229 49.4844 22.9062ZM64.1094 26.6562C63.6615 26.9792 63.3125 27.1406 63.0625 27.1406C62.8229 27.1406 62.6198 27.1042 62.4531 27.0312C62.2969 26.9688 62.151 26.8854 62.0156 26.7812C61.7031 26.5208 61.5469 26.2865 61.5469 26.0781C61.5469 25.8594 61.6615 25.6615 61.8906 25.4844C61.8906 25.4844 62.2083 25.2292 62.8438 24.7188C64.5521 23.3125 65.9635 21.7865 67.0781 20.1406C66.1719 17.599 65.7552 15.4844 65.8281 13.7969C65.8698 12.9635 66.2292 12.2448 66.9062 11.6406C67.5312 11.099 68.1979 10.8281 68.9062 10.8281C69.1146 10.8281 69.25 10.901 69.3125 11.0469C69.375 11.1927 69.4062 11.4062 69.4062 11.6875C69.4062 11.9583 69.3958 12.25 69.375 12.5625C69.3542 12.8646 69.349 13.1875 69.3594 13.5312C69.3802 13.8646 69.4062 14.2292 69.4375 14.625C69.5417 15.6875 69.6406 16.5156 69.7344 17.1094L70.25 16.25C71.4375 14.3646 72.8229 12.8698 74.4062 11.7656C75.3021 11.1406 76.0729 10.8281 76.7188 10.8281C77.3021 10.8281 77.7552 10.9115 78.0781 11.0781C78.6823 11.3906 78.8854 11.7083 78.6875 12.0312C78.6562 12.0833 78.5938 12.125 78.5 12.1562L78.1094 12.3438C76.4635 13.0625 74.3646 14.8229 71.8125 17.625C71.2812 18.2083 70.8177 18.7656 70.4219 19.2969L70.9688 21.125C71.6458 23.3125 72.4479 24.4062 73.375 24.4062C73.7812 24.4062 74.1146 24.3438 74.375 24.2188L74.9375 23.9688C75.0521 23.9167 75.1615 23.8906 75.2656 23.8906C75.4844 23.8906 75.5938 24 75.5938 24.2188C75.5938 25.1354 75.125 25.9062 74.1875 26.5312C73.5625 26.9479 72.8542 27.1562 72.0625 27.1562C70.5312 27.1562 69.1458 25.5781 67.9062 22.4219C66.5938 24.349 65.3281 25.7604 64.1094 26.6562ZM102.922 6.48438C102.922 5.40104 102.188 4.85938 100.719 4.85938C99.0312 4.85938 97.4375 5.66667 95.9375 7.28125C95.0521 8.23958 94.4271 9.28125 94.0625 10.4062C93.875 10.9479 93.7812 11.4375 93.7812 11.875C93.7812 12.3125 93.8281 12.6719 93.9219 12.9531C94.026 13.224 94.1562 13.4479 94.3125 13.625C94.6354 14.0104 95.0104 14.1562 95.4375 14.0625C95.9479 13.8542 96.3958 13.75 96.7812 13.75C97.1771 13.75 97.4896 13.8021 97.7188 13.9062C97.9583 14 98.1562 14.1198 98.3125 14.2656C98.6042 14.5573 98.75 14.8385 98.75 15.1094C98.75 15.6406 98.5729 15.9167 98.2188 15.9375C97.7708 15.9688 97.2292 16.1198 96.5938 16.3906C95.9688 16.6615 95.3646 17.0104 94.7812 17.4375C94.1979 17.8542 93.6771 18.3281 93.2188 18.8594C92.1771 20.0469 91.6562 21.2552 91.6562 22.4844C91.6562 23.7656 92.1615 24.6146 93.1719 25.0312C93.5052 25.1771 93.9167 25.25 94.4062 25.25C94.8958 25.25 95.3698 25.1458 95.8281 24.9375C96.2969 24.7188 96.7031 24.4479 97.0469 24.125C97.7865 23.4167 98.1667 22.6719 98.1875 21.8906C98.2083 20.901 97.8021 20.2812 96.9688 20.0312C96.75 19.9688 96.5729 19.901 96.4375 19.8281C96.3125 19.7448 96.276 19.6146 96.3281 19.4375C96.3906 19.2604 96.5104 19.0833 96.6875 18.9062C97.125 18.4271 97.6094 18.1875 98.1406 18.1875C98.3802 18.1875 98.7396 18.2396 99.2188 18.3438C100.115 18.5417 100.766 18.6406 101.172 18.6406C102.026 18.6406 102.698 18.5833 103.188 18.4688C103.677 18.3438 104.083 18.2396 104.406 18.1562C104.958 18 105.234 18.1302 105.234 18.5469C105.234 18.9635 105.12 19.349 104.891 19.7031C104.661 20.0469 104.354 20.349 103.969 20.6094C103.135 21.1615 102.115 21.4271 100.906 21.4062C100.938 21.5625 100.953 21.7188 100.953 21.875C100.953 22.4583 100.76 23.0625 100.375 23.6875C99.9896 24.3125 99.4688 24.8854 98.8125 25.4062C97.3229 26.5729 95.6198 27.1562 93.7031 27.1562C91.8073 27.1562 90.3646 26.625 89.375 25.5625C88.5938 24.7188 88.2031 23.7292 88.2031 22.5938C88.2031 20.3229 89.1406 18.3073 91.0156 16.5469C91.651 15.9427 92.2552 15.526 92.8281 15.2969C91.7135 14.8281 90.9688 13.9167 90.5938 12.5625C90.4792 12.125 90.4219 11.6146 90.4219 11.0312C90.4219 10.4479 90.5365 9.81771 90.7656 9.14062C90.9948 8.45312 91.3177 7.79688 91.7344 7.17188C92.1615 6.54688 92.6667 5.96354 93.25 5.42188C93.8438 4.86979 94.5 4.39583 95.2188 4C96.7917 3.125 98.4427 2.6875 100.172 2.6875C101.922 2.6875 103.26 3.20833 104.188 4.25C104.948 5.09375 105.328 6.11979 105.328 7.32812C105.328 8.59896 104.792 9.85938 103.719 11.1094C102.677 12.3385 101.677 12.9531 100.719 12.9531C100.177 12.9531 99.6875 12.724 99.25 12.2656C98.8542 11.849 98.6562 11.4792 98.6562 11.1562C98.6562 10.8333 98.7448 10.625 98.9219 10.5312C100.745 9.54167 101.964 8.55729 102.578 7.57812C102.807 7.21354 102.922 6.84896 102.922 6.48438ZM1.71875 63.3125C1.8125 62.6354 2.01042 61.7031 2.3125 60.5156C2.625 59.3177 3.02083 58.0417 3.5 56.6875C4.59375 53.5833 5.89062 50.8177 7.39062 48.3906C7.59896 48.0573 7.86458 47.8646 8.1875 47.8125C8.64583 47.75 9.04688 47.7188 9.39062 47.7188C9.74479 47.7188 10.0573 47.7604 10.3281 47.8438C10.6094 47.9167 10.8281 48.0156 10.9844 48.1406C11.2969 48.401 11.349 48.6771 11.1406 48.9688C9.25521 51.8125 7.60938 55.2812 6.20312 59.375C5.67188 60.9375 5.35417 62.026 5.25 62.6406C5.14583 63.2448 5.06771 63.6615 5.01562 63.8906C4.97396 64.1094 4.95312 64.3021 4.95312 64.4688C4.95312 64.8125 5.17188 64.9844 5.60938 64.9844C6.04688 64.9844 6.53646 64.8854 7.07812 64.6875C7.61979 64.4792 8.20312 64.1927 8.82812 63.8281C9.45312 63.4531 10.099 63 10.7656 62.4688C11.4427 61.9375 12.1042 61.3438 12.75 60.6875C13.3958 60.0208 14.0052 59.3021 14.5781 58.5312C15.151 57.7604 15.651 56.9479 16.0781 56.0938C17.026 54.2188 17.5 52.3698 17.5 50.5469C17.5 48.0469 16.4844 46.3854 14.4531 45.5625C13.7448 45.2812 13.0052 45.1406 12.2344 45.1406C11.474 45.1406 10.8281 45.1927 10.2969 45.2969C9.76562 45.3906 9.25521 45.526 8.76562 45.7031C7.77604 46.0573 6.94271 46.5312 6.26562 47.125C6.08854 47.2292 5.875 47.2812 5.625 47.2812C5.375 47.2812 5.10417 47.2083 4.8125 47.0625C4.53125 46.9167 4.27604 46.7344 4.04688 46.5156C3.52604 46.0052 3.31771 45.5156 3.42188 45.0469C3.53646 44.3802 4.53646 43.8021 6.42188 43.3125C8.00521 42.9062 9.59896 42.7031 11.2031 42.7031C12.8073 42.7031 14.25 42.9219 15.5312 43.3594C16.8229 43.7969 17.8698 44.3854 18.6719 45.125C20.1719 46.5208 20.9219 48.3906 20.9219 50.7344C20.9219 53.8385 19.849 56.8333 17.7031 59.7188C15.7344 62.3958 13.3906 64.4271 10.6719 65.8125C8.91146 66.7083 7.29167 67.1562 5.8125 67.1562C4.65625 67.1562 3.66146 66.8177 2.82812 66.1406C1.93229 65.4219 1.5625 64.4792 1.71875 63.3125ZM21.6562 61.5312C21.6979 60.625 21.849 59.7604 22.1094 58.9375C22.3698 58.1042 22.7188 57.3021 23.1562 56.5312C23.5938 55.75 24.1042 55.0156 24.6875 54.3281C25.2812 53.6302 25.9219 53.0208 26.6094 52.5C28.099 51.3854 29.6042 50.8281 31.125 50.8281C32.9062 50.8281 34.0938 51.5625 34.6875 53.0312C34.8958 53.5312 34.9948 54.125 34.9844 54.8125C34.974 55.4896 34.8438 56.1198 34.5938 56.7031C34.3438 57.276 33.9948 57.8021 33.5469 58.2812C33.1094 58.75 32.5833 59.1719 31.9688 59.5469C31.3646 59.9219 30.7031 60.2396 29.9844 60.5C28.5052 61.0208 26.9219 61.2917 25.2344 61.3125C25.1927 61.4583 25.1667 61.6771 25.1562 61.9688C25.1458 62.2604 25.1771 62.5885 25.25 62.9531C25.3229 63.3073 25.4479 63.625 25.625 63.9062C26 64.5312 26.5417 64.8438 27.25 64.8438C28.4583 64.8438 29.6354 64.4896 30.7812 63.7812C31.1875 63.5417 31.5156 63.2969 31.7656 63.0469C32.026 62.7865 32.25 62.6562 32.4375 62.6562C32.625 62.6562 32.7865 62.7708 32.9219 63C33.0677 63.2188 33.1406 63.4688 33.1406 63.75C33.1406 64.3021 32.9844 64.7812 32.6719 65.1875C31.3594 66.5 29.4062 67.1562 26.8125 67.1562C25.2812 67.1562 24.0521 66.6979 23.125 65.7812C22.0833 64.7396 21.5938 63.3229 21.6562 61.5312ZM30.7812 52.9062C29.6875 52.9062 28.6354 53.6562 27.625 55.1562C26.7708 56.4479 26.0833 57.9792 25.5625 59.75C27.3021 59.5729 28.8125 58.8854 30.0938 57.6875C31.2708 56.5625 31.8594 55.4844 31.8594 54.4531C31.8594 53.4219 31.5 52.9062 30.7812 52.9062ZM35.8438 64.25C35.8438 63.9271 35.9115 63.6302 36.0469 63.3594C36.1927 63.0781 36.3698 62.8438 36.5781 62.6562C37.0156 62.25 37.474 62.0469 37.9531 62.0469C38.3698 62.0469 38.5781 62.2604 38.5781 62.6875C38.5781 63.7708 38.9375 64.526 39.6562 64.9531C39.9167 65.1094 40.1875 65.1875 40.4688 65.1875C40.75 65.1875 40.9896 65.1562 41.1875 65.0938C41.3854 65.0312 41.5677 64.9323 41.7344 64.7969C42.1094 64.4948 42.2969 64.1354 42.2969 63.7188C42.2969 63.3021 42.2031 62.9219 42.0156 62.5781C41.8281 62.224 41.5938 61.8542 41.3125 61.4688L40.4219 60.2188C39.1719 58.5521 38.5469 57.0156 38.5469 55.6094C38.5469 54.4427 39.0417 53.3854 40.0312 52.4375C41.1562 51.3646 42.599 50.8281 44.3594 50.8281C45.901 50.8281 47.1042 51.2083 47.9688 51.9688C48.6771 52.5833 49.0312 53.2865 49.0312 54.0781C49.0312 54.901 48.7188 55.5573 48.0938 56.0469C47.5312 56.4844 46.9688 56.6458 46.4062 56.5312C46.1562 56.4792 45.9635 56.3542 45.8281 56.1562C45.6927 55.9479 45.6667 55.7135 45.75 55.4531C45.8333 55.1927 45.875 54.9219 45.875 54.6406C45.875 54.3594 45.8229 54.099 45.7188 53.8594C45.6146 53.6198 45.474 53.4167 45.2969 53.25C44.9323 52.9062 44.5469 52.7344 44.1406 52.7344C43.7448 52.7344 43.4167 52.7812 43.1562 52.875C42.8958 52.9583 42.6667 53.0833 42.4688 53.25C42.0625 53.625 41.8594 54.0885 41.8594 54.6406C41.8594 55.1823 41.9531 55.651 42.1406 56.0469C42.3281 56.4427 42.5573 56.8385 42.8281 57.2344C43.1094 57.6302 43.4115 58.0312 43.7344 58.4375C44.0573 58.8438 44.3542 59.2708 44.625 59.7188C45.2812 60.7708 45.6094 61.6979 45.6094 62.5C45.6094 63.2917 45.4427 63.9583 45.1094 64.5C44.776 65.0312 44.3438 65.4896 43.8125 65.875C42.6771 66.7188 41.4062 67.1406 40 67.1406C38.6562 67.1406 37.5938 66.8177 36.8125 66.1719C36.1667 65.6302 35.8438 64.9896 35.8438 64.25ZM59.25 62.9062C59.5521 62.9062 59.7031 63.1094 59.7031 63.5156C59.7031 63.8594 59.599 64.1927 59.3906 64.5156C59.1094 65.1198 58.5469 65.6927 57.7031 66.2344C56.7448 66.849 55.7812 67.1562 54.8125 67.1562C53.1354 67.1562 52.0729 66.4062 51.625 64.9062C51.0938 63.125 51.8906 59.349 54.0156 53.5781C52.8177 53.474 52.1667 53.2656 52.0625 52.9531C52.0312 52.8594 52.0156 52.7604 52.0156 52.6562C52.0156 52.5417 52.0625 52.4115 52.1562 52.2656C52.2604 52.1198 52.3906 51.9792 52.5469 51.8438C52.9115 51.5417 53.2812 51.3906 53.6562 51.3906H54.8906C56.0156 48.7552 56.8177 47.2552 57.2969 46.8906C57.526 46.724 57.7812 46.6406 58.0625 46.6406C58.3438 46.6406 58.5781 46.6771 58.7656 46.75C58.9531 46.8229 59.1198 46.9271 59.2656 47.0625C59.599 47.375 59.7656 47.724 59.7656 48.1094C59.7656 48.3177 59.7031 48.5573 59.5781 48.8281L58.4219 51.3438H58.7969C59.4427 51.3438 59.9635 51.3385 60.3594 51.3281C60.3594 51.3281 60.6562 51.3229 61.25 51.3125C61.4479 51.3021 61.6927 51.2969 61.9844 51.2969C62.2865 51.2969 62.4375 51.4062 62.4375 51.625C62.4375 53 60.8125 53.6875 57.5625 53.6875H57.4375L56.375 56.4375C55.1771 59.6875 54.5781 61.9635 54.5781 63.2656C54.5781 63.6302 54.6615 63.9167 54.8281 64.125C54.9948 64.3229 55.3073 64.4219 55.7656 64.4219C56.224 64.4219 56.6406 64.3438 57.0156 64.1875C57.3906 64.0312 57.7188 63.8594 58 63.6719C58.2812 63.474 58.5208 63.2969 58.7188 63.1406C58.9271 62.9844 59.1042 62.9062 59.25 62.9062ZM61.7188 66.625C61.5104 66.4688 61.3438 66.2969 61.2188 66.1094C61.0938 65.9115 61.026 65.7448 61.0156 65.6094C61.0052 65.4635 61.0312 65.2917 61.0938 65.0938C61.1667 64.8854 61.2604 64.6354 61.375 64.3438C63.5 59.1146 64.5625 55.6042 64.5625 53.8125C64.5312 53.3125 64.3594 52.9583 64.0469 52.75L63.7344 52.5312C63.6406 52.4583 63.5885 52.3333 63.5781 52.1562C63.5781 51.9688 63.6458 51.7917 63.7812 51.625C63.9167 51.4583 64.0938 51.3125 64.3125 51.1875C64.7604 50.9479 65.2188 50.8281 65.6875 50.8281C66.1667 50.8281 66.5365 50.8802 66.7969 50.9844C67.0677 51.0885 67.2969 51.2292 67.4844 51.4062C67.8802 51.7812 68.0781 52.1771 68.0781 52.5938C68.0885 53.0104 68.0417 53.4323 67.9375 53.8594C67.8438 54.2865 67.7292 54.7083 67.5938 55.125C67.4583 55.5312 67.3229 55.9219 67.1875 56.2969C67.0521 56.6615 66.9635 56.9323 66.9219 57.1094C66.8385 57.474 66.8073 57.7031 66.8281 57.7969C67.0781 57.5781 67.2292 57.3646 67.2812 57.1562L67.8906 56C69.2448 53.5625 70.5677 51.9479 71.8594 51.1562C72.2344 50.9375 72.6823 50.8281 73.2031 50.8281C73.7344 50.8281 74.1615 51.0156 74.4844 51.3906C74.8073 51.7552 74.974 52.1615 74.9844 52.6094C75.0052 53.0573 74.974 53.4323 74.8906 53.7344C74.8177 54.026 74.7031 54.3021 74.5469 54.5625C74.2031 55.1458 73.7865 55.4375 73.2969 55.4375C73.1615 55.4375 73.0365 55.3906 72.9219 55.2969L72.5781 55C72.2344 54.6979 71.901 54.5469 71.5781 54.5469C71.2656 54.5469 70.8802 54.7552 70.4219 55.1719C69.974 55.5885 69.5052 56.125 69.0156 56.7812C67.3698 58.9583 66.026 61.3958 64.9844 64.0938L64.2969 65.9062C64.1198 66.3542 63.9635 66.6771 63.8281 66.875C63.6927 67.0625 63.4896 67.1562 63.2188 67.1562C62.9583 67.1562 62.6927 67.1042 62.4219 67C62.1615 66.9062 61.9271 66.7812 61.7188 66.625ZM74.875 61.5312C74.9167 60.625 75.0677 59.7604 75.3281 58.9375C75.5885 58.1042 75.9375 57.3021 76.375 56.5312C76.8125 55.75 77.3229 55.0156 77.9062 54.3281C78.5 53.6302 79.1406 53.0208 79.8281 52.5C81.3177 51.3854 82.8229 50.8281 84.3438 50.8281C86.125 50.8281 87.3125 51.5625 87.9062 53.0312C88.1146 53.5312 88.2135 54.125 88.2031 54.8125C88.1927 55.4896 88.0625 56.1198 87.8125 56.7031C87.5625 57.276 87.2135 57.8021 86.7656 58.2812C86.3281 58.75 85.8021 59.1719 85.1875 59.5469C84.5833 59.9219 83.9219 60.2396 83.2031 60.5C81.724 61.0208 80.1406 61.2917 78.4531 61.3125C78.4115 61.4583 78.3854 61.6771 78.375 61.9688C78.3646 62.2604 78.3958 62.5885 78.4688 62.9531C78.5417 63.3073 78.6667 63.625 78.8438 63.9062C79.2188 64.5312 79.7604 64.8438 80.4688 64.8438C81.6771 64.8438 82.8542 64.4896 84 63.7812C84.4062 63.5417 84.7344 63.2969 84.9844 63.0469C85.2448 62.7865 85.4688 62.6562 85.6562 62.6562C85.8438 62.6562 86.0052 62.7708 86.1406 63C86.2865 63.2188 86.3594 63.4688 86.3594 63.75C86.3594 64.3021 86.2031 64.7812 85.8906 65.1875C84.5781 66.5 82.625 67.1562 80.0312 67.1562C78.5 67.1562 77.2708 66.6979 76.3438 65.7812C75.3021 64.7396 74.8125 63.3229 74.875 61.5312ZM84 52.9062C82.9062 52.9062 81.8542 53.6562 80.8438 55.1562C79.9896 56.4479 79.3021 57.9792 78.7812 59.75C80.5208 59.5729 82.0312 58.8854 83.3125 57.6875C84.4896 56.5625 85.0781 55.4844 85.0781 54.4531C85.0781 53.4219 84.7188 52.9062 84 52.9062ZM89.0625 64.25C89.0625 63.9271 89.1302 63.6302 89.2656 63.3594C89.4115 63.0781 89.5885 62.8438 89.7969 62.6562C90.2344 62.25 90.6927 62.0469 91.1719 62.0469C91.5885 62.0469 91.7969 62.2604 91.7969 62.6875C91.7969 63.7708 92.1562 64.526 92.875 64.9531C93.1354 65.1094 93.4062 65.1875 93.6875 65.1875C93.9688 65.1875 94.2083 65.1562 94.4062 65.0938C94.6042 65.0312 94.7865 64.9323 94.9531 64.7969C95.3281 64.4948 95.5156 64.1354 95.5156 63.7188C95.5156 63.3021 95.4219 62.9219 95.2344 62.5781C95.0469 62.224 94.8125 61.8542 94.5312 61.4688L93.6406 60.2188C92.3906 58.5521 91.7656 57.0156 91.7656 55.6094C91.7656 54.4427 92.2604 53.3854 93.25 52.4375C94.375 51.3646 95.8177 50.8281 97.5781 50.8281C99.1198 50.8281 100.323 51.2083 101.188 51.9688C101.896 52.5833 102.25 53.2865 102.25 54.0781C102.25 54.901 101.938 55.5573 101.312 56.0469C100.75 56.4844 100.188 56.6458 99.625 56.5312C99.375 56.4792 99.1823 56.3542 99.0469 56.1562C98.9115 55.9479 98.8854 55.7135 98.9688 55.4531C99.0521 55.1927 99.0938 54.9219 99.0938 54.6406C99.0938 54.3594 99.0417 54.099 98.9375 53.8594C98.8333 53.6198 98.6927 53.4167 98.5156 53.25C98.151 52.9062 97.7656 52.7344 97.3594 52.7344C96.9635 52.7344 96.6354 52.7812 96.375 52.875C96.1146 52.9583 95.8854 53.0833 95.6875 53.25C95.2812 53.625 95.0781 54.0885 95.0781 54.6406C95.0781 55.1823 95.1719 55.651 95.3594 56.0469C95.5469 56.4427 95.776 56.8385 96.0469 57.2344C96.3281 57.6302 96.6302 58.0312 96.9531 58.4375C97.276 58.8438 97.5729 59.2708 97.8438 59.7188C98.5 60.7708 98.8281 61.6979 98.8281 62.5C98.8281 63.2917 98.6615 63.9583 98.3281 64.5C97.9948 65.0312 97.5625 65.4896 97.0312 65.875C95.8958 66.7188 94.625 67.1406 93.2188 67.1406C91.875 67.1406 90.8125 66.8177 90.0312 66.1719C89.3854 65.6302 89.0625 64.9896 89.0625 64.25ZM102.625 64.25C102.625 63.9271 102.693 63.6302 102.828 63.3594C102.974 63.0781 103.151 62.8438 103.359 62.6562C103.797 62.25 104.255 62.0469 104.734 62.0469C105.151 62.0469 105.359 62.2604 105.359 62.6875C105.359 63.7708 105.719 64.526 106.438 64.9531C106.698 65.1094 106.969 65.1875 107.25 65.1875C107.531 65.1875 107.771 65.1562 107.969 65.0938C108.167 65.0312 108.349 64.9323 108.516 64.7969C108.891 64.4948 109.078 64.1354 109.078 63.7188C109.078 63.3021 108.984 62.9219 108.797 62.5781C108.609 62.224 108.375 61.8542 108.094 61.4688L107.203 60.2188C105.953 58.5521 105.328 57.0156 105.328 55.6094C105.328 54.4427 105.823 53.3854 106.812 52.4375C107.938 51.3646 109.38 50.8281 111.141 50.8281C112.682 50.8281 113.885 51.2083 114.75 51.9688C115.458 52.5833 115.812 53.2865 115.812 54.0781C115.812 54.901 115.5 55.5573 114.875 56.0469C114.312 56.4844 113.75 56.6458 113.188 56.5312C112.938 56.4792 112.745 56.3542 112.609 56.1562C112.474 55.9479 112.448 55.7135 112.531 55.4531C112.615 55.1927 112.656 54.9219 112.656 54.6406C112.656 54.3594 112.604 54.099 112.5 53.8594C112.396 53.6198 112.255 53.4167 112.078 53.25C111.714 52.9062 111.328 52.7344 110.922 52.7344C110.526 52.7344 110.198 52.7812 109.938 52.875C109.677 52.9583 109.448 53.0833 109.25 53.25C108.844 53.625 108.641 54.0885 108.641 54.6406C108.641 55.1823 108.734 55.651 108.922 56.0469C109.109 56.4427 109.339 56.8385 109.609 57.2344C109.891 57.6302 110.193 58.0312 110.516 58.4375C110.839 58.8438 111.135 59.2708 111.406 59.7188C112.062 60.7708 112.391 61.6979 112.391 62.5C112.391 63.2917 112.224 63.9583 111.891 64.5C111.557 65.0312 111.125 65.4896 110.594 65.875C109.458 66.7188 108.188 67.1406 106.781 67.1406C105.438 67.1406 104.375 66.8177 103.594 66.1719C102.948 65.6302 102.625 64.9896 102.625 64.25Z" fill="white"/>
</svg>
