<svg width="131" height="66" viewBox="0 0 131 66" fill="none" xmlns="http://www.w3.org/2000/svg">
<path d="M5.07812 18.4375L5.09375 17.9844C5.20833 14.8698 5.99479 11.9271 7.45312 9.15625C8.79688 6.625 10.4896 4.57812 12.5312 3.01562C14.5521 1.47396 16.5208 0.703125 18.4375 0.703125C19.8958 0.703125 21.0469 1.20833 21.8906 2.21875C22.6094 3.09375 22.9688 4.16667 22.9688 5.4375C22.9688 6.95833 22.4115 8.45833 21.2969 9.9375C20.651 10.7917 19.9635 11.4062 19.2344 11.7812C18.8906 11.9688 18.5677 12.0625 18.2656 12.0625C17.974 12.0625 17.7031 12 17.4531 11.875C17.2031 11.75 16.9844 11.5938 16.7969 11.4062C16.4115 11 16.2188 10.6354 16.2188 10.3125C16.2188 9.98958 16.3021 9.76562 16.4688 9.64062C18.1771 8.41146 19.3385 7.14583 19.9531 5.84375C20.1927 5.34375 20.3125 4.85417 20.3125 4.375C20.3125 3.36458 19.8333 2.85938 18.875 2.85938C17.375 2.85938 15.8281 3.67708 14.2344 5.3125C12.7448 6.82292 11.4948 8.71875 10.4844 11C9.43229 13.3438 8.875 15.4948 8.8125 17.4531L8.79688 18.0469C8.79688 20.3906 9.29167 21.9271 10.2812 22.6562C10.6354 22.9167 11.0573 23.0469 11.5469 23.0469C12.0469 23.0469 12.5156 22.9844 12.9531 22.8594C13.3906 22.7344 13.8281 22.5625 14.2656 22.3438C14.974 21.9792 15.8802 21.349 16.9844 20.4531C17.3177 20.1927 17.5938 20.2292 17.8125 20.5625C18 20.8333 18.0938 21.1458 18.0938 21.5C18.0938 22.0938 18.0104 22.5 17.8438 22.7188C17.6875 22.9271 17.4115 23.1771 17.0156 23.4688C16.6302 23.7604 16.1562 24.0312 15.5938 24.2812C14.2812 24.8646 12.9948 25.1562 11.7344 25.1562C10.474 25.1562 9.45833 25.0052 8.6875 24.7031C7.91667 24.3906 7.26562 23.9479 6.73438 23.375C5.63021 22.1667 5.07812 20.5208 5.07812 18.4375ZM21.8281 24.625C21.6198 24.4688 21.4531 24.2969 21.3281 24.1094C21.2031 23.9115 21.1354 23.7448 21.125 23.6094C21.1146 23.4635 21.1406 23.2917 21.2031 23.0938C21.276 22.8854 21.3698 22.6354 21.4844 22.3438C23.6094 17.1146 24.6719 13.6042 24.6719 11.8125C24.6406 11.3125 24.4688 10.9583 24.1562 10.75L23.8438 10.5312C23.75 10.4583 23.6979 10.3333 23.6875 10.1562C23.6875 9.96875 23.7552 9.79167 23.8906 9.625C24.026 9.45833 24.2031 9.3125 24.4219 9.1875C24.8698 8.94792 25.3281 8.82812 25.7969 8.82812C26.276 8.82812 26.6458 8.88021 26.9062 8.98438C27.1771 9.08854 27.4062 9.22917 27.5938 9.40625C27.9896 9.78125 28.1875 10.1771 28.1875 10.5938C28.1979 11.0104 28.151 11.4323 28.0469 11.8594C27.9531 12.2865 27.8385 12.7083 27.7031 13.125C27.5677 13.5312 27.4323 13.9219 27.2969 14.2969C27.1615 14.6615 27.0729 14.9323 27.0312 15.1094C26.9479 15.474 26.9167 15.7031 26.9375 15.7969C27.1875 15.5781 27.3385 15.3646 27.3906 15.1562L28 14C29.3542 11.5625 30.6771 9.94792 31.9688 9.15625C32.3438 8.9375 32.7917 8.82812 33.3125 8.82812C33.8438 8.82812 34.2708 9.01562 34.5938 9.39062C34.9167 9.75521 35.0833 10.1615 35.0938 10.6094C35.1146 11.0573 35.0833 11.4323 35 11.7344C34.9271 12.026 34.8125 12.3021 34.6562 12.5625C34.3125 13.1458 33.8958 13.4375 33.4062 13.4375C33.2708 13.4375 33.1458 13.3906 33.0312 13.2969L32.6875 13C32.3438 12.6979 32.0104 12.5469 31.6875 12.5469C31.375 12.5469 30.9896 12.7552 30.5312 13.1719C30.0833 13.5885 29.6146 14.125 29.125 14.7812C27.4792 16.9583 26.1354 19.3958 25.0938 22.0938L24.4062 23.9062C24.2292 24.3542 24.0729 24.6771 23.9375 24.875C23.8021 25.0625 23.599 25.1562 23.3281 25.1562C23.0677 25.1562 22.8021 25.1042 22.5312 25C22.2708 24.9062 22.0365 24.7812 21.8281 24.625ZM34.9844 19.5312C35.026 18.625 35.1771 17.7604 35.4375 16.9375C35.6979 16.1042 36.0469 15.3021 36.4844 14.5312C36.9219 13.75 37.4323 13.0156 38.0156 12.3281C38.6094 11.6302 39.25 11.0208 39.9375 10.5C41.4271 9.38542 42.9323 8.82812 44.4531 8.82812C46.2344 8.82812 47.4219 9.5625 48.0156 11.0312C48.224 11.5312 48.3229 12.125 48.3125 12.8125C48.3021 13.4896 48.1719 14.1198 47.9219 14.7031C47.6719 15.276 47.3229 15.8021 46.875 16.2812C46.4375 16.75 45.9115 17.1719 45.2969 17.5469C44.6927 17.9219 44.0312 18.2396 43.3125 18.5C41.8333 19.0208 40.25 19.2917 38.5625 19.3125C38.5208 19.4583 38.4948 19.6771 38.4844 19.9688C38.474 20.2604 38.5052 20.5885 38.5781 20.9531C38.651 21.3073 38.776 21.625 38.9531 21.9062C39.3281 22.5312 39.8698 22.8438 40.5781 22.8438C41.7865 22.8438 42.9635 22.4896 44.1094 21.7812C44.5156 21.5417 44.8438 21.2969 45.0938 21.0469C45.3542 20.7865 45.5781 20.6562 45.7656 20.6562C45.9531 20.6562 46.1146 20.7708 46.25 21C46.3958 21.2188 46.4688 21.4688 46.4688 21.75C46.4688 22.3021 46.3125 22.7812 46 23.1875C44.6875 24.5 42.7344 25.1562 40.1406 25.1562C38.6094 25.1562 37.3802 24.6979 36.4531 23.7812C35.4115 22.7396 34.9219 21.3229 34.9844 19.5312ZM44.1094 10.9062C43.0156 10.9062 41.9635 11.6562 40.9531 13.1562C40.099 14.4479 39.4115 15.9792 38.8906 17.75C40.6302 17.5729 42.1406 16.8854 43.4219 15.6875C44.599 14.5625 45.1875 13.4844 45.1875 12.4531C45.1875 11.4219 44.8281 10.9062 44.1094 10.9062ZM61.9844 20.8438C61.9844 21.8021 62.3229 22.2812 63 22.2812C63.4688 22.2812 63.8542 22.2083 64.1562 22.0625C64.4688 21.9167 64.6771 21.8438 64.7812 21.8438C65 21.8438 65.1094 21.9583 65.1094 22.1875C65.1094 23.0833 64.6406 23.8542 63.7031 24.5C62.7135 25.1771 61.7031 25.3438 60.6719 25C59.9948 24.7604 59.4948 24.2448 59.1719 23.4531C59.0156 23.0469 58.9375 22.6771 58.9375 22.3438C58.9375 21.8021 58.9896 21.2292 59.0938 20.625C58.125 22.6042 56.9219 23.9688 55.4844 24.7188C54.9115 25.0104 54.3021 25.1562 53.6562 25.1562C53.0104 25.1562 52.4479 25.026 51.9688 24.7656C51.5 24.4948 51.099 24.125 50.7656 23.6562C50.0885 22.6771 49.7812 21.4479 49.8438 19.9688C49.9062 18.1146 50.4531 16.2969 51.4844 14.5156C52.4323 12.849 53.6302 11.4896 55.0781 10.4375C56.526 9.36458 57.8802 8.82812 59.1406 8.82812C60.401 8.82812 61.4167 9.40625 62.1875 10.5625C62.9062 9.40625 63.5417 8.82812 64.0938 8.82812C64.6875 8.82812 65.1354 8.9375 65.4375 9.15625C66.0104 9.57292 66.2135 9.9375 66.0469 10.25C63.4323 15.6042 62.0885 18.9375 62.0156 20.25C61.9948 20.4375 61.9844 20.6354 61.9844 20.8438ZM53.3125 20.9062C53.3125 22.1562 53.7135 22.7812 54.5156 22.7812C55.1302 22.7812 55.8854 22.2604 56.7812 21.2188C58.0938 19.6875 59.2552 17.625 60.2656 15.0312C60.5885 14.2188 60.8594 13.4062 61.0781 12.5938C61.0365 11.8854 60.7396 11.3646 60.1875 11.0312C60 10.9167 59.7188 10.8594 59.3438 10.8594C58.9792 10.8594 58.5469 10.9948 58.0469 11.2656C57.5573 11.5365 57.0781 11.9062 56.6094 12.375C56.151 12.8438 55.7188 13.401 55.3125 14.0469C54.9167 14.6823 54.5677 15.375 54.2656 16.125C53.6302 17.7292 53.3125 19.3229 53.3125 20.9062ZM76.3594 20.9062C76.6615 20.9062 76.8125 21.1094 76.8125 21.5156C76.8125 21.8594 76.7083 22.1927 76.5 22.5156C76.2188 23.1198 75.6562 23.6927 74.8125 24.2344C73.8542 24.849 72.8906 25.1562 71.9219 25.1562C70.2448 25.1562 69.1823 24.4062 68.7344 22.9062C68.2031 21.125 69 17.349 71.125 11.5781C69.9271 11.474 69.276 11.2656 69.1719 10.9531C69.1406 10.8594 69.125 10.7604 69.125 10.6562C69.125 10.5417 69.1719 10.4115 69.2656 10.2656C69.3698 10.1198 69.5 9.97917 69.6562 9.84375C70.0208 9.54167 70.3906 9.39062 70.7656 9.39062H72C73.125 6.75521 73.9271 5.25521 74.4062 4.89062C74.6354 4.72396 74.8906 4.64062 75.1719 4.64062C75.4531 4.64062 75.6875 4.67708 75.875 4.75C76.0625 4.82292 76.2292 4.92708 76.375 5.0625C76.7083 5.375 76.875 5.72396 76.875 6.10938C76.875 6.31771 76.8125 6.55729 76.6875 6.82812L75.5312 9.34375H75.9062C76.5521 9.34375 77.0729 9.33854 77.4688 9.32812C77.4688 9.32812 77.7656 9.32292 78.3594 9.3125C78.5573 9.30208 78.8021 9.29688 79.0938 9.29688C79.3958 9.29688 79.5469 9.40625 79.5469 9.625C79.5469 11 77.9219 11.6875 74.6719 11.6875H74.5469L73.4844 14.4375C72.2865 17.6875 71.6875 19.9635 71.6875 21.2656C71.6875 21.6302 71.7708 21.9167 71.9375 22.125C72.1042 22.3229 72.4167 22.4219 72.875 22.4219C73.3333 22.4219 73.75 22.3438 74.125 22.1875C74.5 22.0312 74.8281 21.8594 75.1094 21.6719C75.3906 21.474 75.6302 21.2969 75.8281 21.1406C76.0365 20.9844 76.2135 20.9062 76.3594 20.9062ZM78.9219 19.5312C78.9635 18.625 79.1146 17.7604 79.375 16.9375C79.6354 16.1042 79.9844 15.3021 80.4219 14.5312C80.8594 13.75 81.3698 13.0156 81.9531 12.3281C82.5469 11.6302 83.1875 11.0208 83.875 10.5C85.3646 9.38542 86.8698 8.82812 88.3906 8.82812C90.1719 8.82812 91.3594 9.5625 91.9531 11.0312C92.1615 11.5312 92.2604 12.125 92.25 12.8125C92.2396 13.4896 92.1094 14.1198 91.8594 14.7031C91.6094 15.276 91.2604 15.8021 90.8125 16.2812C90.375 16.75 89.849 17.1719 89.2344 17.5469C88.6302 17.9219 87.9688 18.2396 87.25 18.5C85.7708 19.0208 84.1875 19.2917 82.5 19.3125C82.4583 19.4583 82.4323 19.6771 82.4219 19.9688C82.4115 20.2604 82.4427 20.5885 82.5156 20.9531C82.5885 21.3073 82.7135 21.625 82.8906 21.9062C83.2656 22.5312 83.8073 22.8438 84.5156 22.8438C85.724 22.8438 86.901 22.4896 88.0469 21.7812C88.4531 21.5417 88.7812 21.2969 89.0312 21.0469C89.2917 20.7865 89.5156 20.6562 89.7031 20.6562C89.8906 20.6562 90.0521 20.7708 90.1875 21C90.3333 21.2188 90.4062 21.4688 90.4062 21.75C90.4062 22.3021 90.25 22.7812 89.9375 23.1875C88.625 24.5 86.6719 25.1562 84.0781 25.1562C82.5469 25.1562 81.3177 24.6979 80.3906 23.7812C79.349 22.7396 78.8594 21.3229 78.9219 19.5312ZM88.0469 10.9062C86.9531 10.9062 85.901 11.6562 84.8906 13.1562C84.0365 14.4479 83.349 15.9792 82.8281 17.75C84.5677 17.5729 86.0781 16.8854 87.3594 15.6875C88.5365 14.5625 89.125 13.4844 89.125 12.4531C89.125 11.4219 88.7656 10.9062 88.0469 10.9062ZM118.375 4.48438C118.375 3.40104 117.641 2.85938 116.172 2.85938C114.484 2.85938 112.891 3.66667 111.391 5.28125C110.505 6.23958 109.88 7.28125 109.516 8.40625C109.328 8.94792 109.234 9.4375 109.234 9.875C109.234 10.3125 109.281 10.6719 109.375 10.9531C109.479 11.224 109.609 11.4479 109.766 11.625C110.089 12.0104 110.464 12.1562 110.891 12.0625C111.401 11.8542 111.849 11.75 112.234 11.75C112.63 11.75 112.943 11.8021 113.172 11.9062C113.411 12 113.609 12.1198 113.766 12.2656C114.057 12.5573 114.203 12.8385 114.203 13.1094C114.203 13.6406 114.026 13.9167 113.672 13.9375C113.224 13.9688 112.682 14.1198 112.047 14.3906C111.422 14.6615 110.818 15.0104 110.234 15.4375C109.651 15.8542 109.13 16.3281 108.672 16.8594C107.63 18.0469 107.109 19.2552 107.109 20.4844C107.109 21.7656 107.615 22.6146 108.625 23.0312C108.958 23.1771 109.37 23.25 109.859 23.25C110.349 23.25 110.823 23.1458 111.281 22.9375C111.75 22.7188 112.156 22.4479 112.5 22.125C113.24 21.4167 113.62 20.6719 113.641 19.8906C113.661 18.901 113.255 18.2812 112.422 18.0312C112.203 17.9688 112.026 17.901 111.891 17.8281C111.766 17.7448 111.729 17.6146 111.781 17.4375C111.844 17.2604 111.964 17.0833 112.141 16.9062C112.578 16.4271 113.062 16.1875 113.594 16.1875C113.833 16.1875 114.193 16.2396 114.672 16.3438C115.568 16.5417 116.219 16.6406 116.625 16.6406C117.479 16.6406 118.151 16.5833 118.641 16.4688C119.13 16.3438 119.536 16.2396 119.859 16.1562C120.411 16 120.688 16.1302 120.688 16.5469C120.688 16.9635 120.573 17.349 120.344 17.7031C120.115 18.0469 119.807 18.349 119.422 18.6094C118.589 19.1615 117.568 19.4271 116.359 19.4062C116.391 19.5625 116.406 19.7188 116.406 19.875C116.406 20.4583 116.214 21.0625 115.828 21.6875C115.443 22.3125 114.922 22.8854 114.266 23.4062C112.776 24.5729 111.073 25.1562 109.156 25.1562C107.26 25.1562 105.818 24.625 104.828 23.5625C104.047 22.7188 103.656 21.7292 103.656 20.5938C103.656 18.3229 104.594 16.3073 106.469 14.5469C107.104 13.9427 107.708 13.526 108.281 13.2969C107.167 12.8281 106.422 11.9167 106.047 10.5625C105.932 10.125 105.875 9.61458 105.875 9.03125C105.875 8.44792 105.99 7.81771 106.219 7.14062C106.448 6.45312 106.771 5.79688 107.188 5.17188C107.615 4.54688 108.12 3.96354 108.703 3.42188C109.297 2.86979 109.953 2.39583 110.672 2C112.245 1.125 113.896 0.6875 115.625 0.6875C117.375 0.6875 118.714 1.20833 119.641 2.25C120.401 3.09375 120.781 4.11979 120.781 5.32812C120.781 6.59896 120.245 7.85938 119.172 9.10938C118.13 10.3385 117.13 10.9531 116.172 10.9531C115.63 10.9531 115.141 10.724 114.703 10.2656C114.307 9.84896 114.109 9.47917 114.109 9.15625C114.109 8.83333 114.198 8.625 114.375 8.53125C116.198 7.54167 117.417 6.55729 118.031 5.57812C118.26 5.21354 118.375 4.84896 118.375 4.48438ZM31.4844 61.8438C31.7448 61.8438 31.875 62.0312 31.875 62.4062C31.875 62.7708 31.8073 63.0729 31.6719 63.3125C31.5365 63.5521 31.3802 63.7708 31.2031 63.9688C31.026 64.1667 30.8021 64.3542 30.5312 64.5312C29.8958 64.9479 29.224 65.1562 28.5156 65.1562C27.8177 65.1562 27.2604 65.0729 26.8438 64.9062C26.4375 64.7292 26.0833 64.4688 25.7812 64.125C25.1354 63.4062 24.8125 62.4115 24.8125 61.1406C24.8125 59.7865 25.0729 58.1354 25.5938 56.1875C26.1146 54.2292 26.6146 52.5573 27.0938 51.1719C27.5833 49.776 28.0833 48.4479 28.5938 47.1875L30 43.6094C28.4583 44.9948 26.5052 47.9062 24.1406 52.3438L20.3594 59.5C18.3385 63.2708 16.8958 65.1562 16.0312 65.1562C15.1875 65.1562 14.6094 64.7917 14.2969 64.0625C14.0156 63.3646 13.875 62.1823 13.875 60.5156C13.875 58.8385 14.0052 57.2344 14.2656 55.7031C14.5365 54.1615 14.875 52.6562 15.2812 51.1875C15.9896 48.5938 16.9062 46.0208 18.0312 43.4688C16.9375 44.0833 15.724 45.4531 14.3906 47.5781C13.3698 49.276 12.651 50.5156 12.2344 51.2969L8.20312 58.7188C6.52604 61.7708 5.17708 63.6562 4.15625 64.375C3.41667 64.8958 2.61979 65.1562 1.76562 65.1562C1.03646 65.1562 0.510417 64.9271 0.1875 64.4688C0.0625 64.2812 0 64.1094 0 63.9531C0 63.7969 0.046875 63.7031 0.140625 63.6719C0.786458 63.4948 1.24479 63.3125 1.51562 63.125C1.77604 62.9271 2.03646 62.7292 2.29688 62.5312C2.55729 62.3229 2.9375 61.8906 3.4375 61.2344C3.9375 60.5677 4.47917 59.7708 5.0625 58.8438C5.64583 57.9062 6.25521 56.8594 6.89062 55.7031L8.875 52.0469C10.7083 48.5052 12.625 45.6667 14.625 43.5312C15.3333 42.7708 16.0312 42.1823 16.7188 41.7656C17.4062 41.276 18.2031 40.9479 19.1094 40.7812C19.3594 40.7292 19.5885 40.7031 19.7969 40.7031C20.0156 40.7031 20.2552 40.7344 20.5156 40.7969C20.7865 40.8594 21.0208 40.9583 21.2188 41.0938C21.6771 41.4062 21.8125 41.8229 21.625 42.3438C21.5417 42.6562 21.3802 43.125 21.1406 43.75L20.2969 45.9844C18.3281 51.4219 17.25 56.3698 17.0625 60.8281C17.6146 59.8802 18.1719 58.8438 18.7344 57.7188L20.5 54.2344L22.3594 50.6875C25.224 45.375 27.8854 42.3333 30.3438 41.5625C30.8542 41.3958 31.2812 41.3125 31.625 41.3125C31.9688 41.3125 32.2396 41.3594 32.4375 41.4531C32.6354 41.5365 32.8125 41.6458 32.9688 41.7812C33.3333 42.1146 33.4583 42.4583 33.3438 42.8125C33.2292 43.1562 33.0781 43.599 32.8906 44.1406L30.625 50.75L29.8125 53.3438C28.9167 56.3438 28.3854 58.6458 28.2188 60.25C28.1562 60.9271 28.2292 61.4583 28.4375 61.8438C28.6562 62.2188 28.9531 62.4062 29.3281 62.4062C29.7031 62.4062 29.9948 62.3802 30.2031 62.3281C30.4219 62.2656 30.6094 62.1979 30.7656 62.125L31.1719 61.9375C31.2865 61.875 31.3906 61.8438 31.4844 61.8438ZM35.7812 63.9375C35.3438 63.5208 35 62.9948 34.75 62.3594C34.5 61.7135 34.3698 60.9531 34.3594 60.0781C34.349 59.2031 34.4531 58.3177 34.6719 57.4219C34.901 56.526 35.2188 55.6615 35.625 54.8281C36.0417 53.9948 36.5365 53.2135 37.1094 52.4844C37.6927 51.7552 38.3333 51.1198 39.0312 50.5781C40.5521 49.4115 42.1302 48.8281 43.7656 48.8281C45.9115 48.8281 47.3646 49.7708 48.125 51.6562C48.6667 53.0208 48.6979 54.6719 48.2188 56.6094C47.7812 58.3906 46.9792 60.026 45.8125 61.5156C44.6562 63.0052 43.2917 64.0625 41.7188 64.6875C40.9271 65 40.1458 65.1562 39.375 65.1562C38.6146 65.1562 37.9323 65.0573 37.3281 64.8594C36.7344 64.6615 36.2188 64.3542 35.7812 63.9375ZM38.7656 56.3594C38.4531 57.1302 38.2031 57.9219 38.0156 58.7344C37.8385 59.5469 37.7552 60.3177 37.7656 61.0469C37.776 61.7656 37.8854 62.3333 38.0938 62.75C38.3125 63.1562 38.6615 63.3594 39.1406 63.3594C39.6198 63.3594 40.0885 63.1979 40.5469 62.875C41.0156 62.5417 41.4688 62.1042 41.9062 61.5625C42.3438 61.0208 42.7552 60.3958 43.1406 59.6875C43.526 58.9792 43.8646 58.2396 44.1562 57.4688C44.7917 55.7917 45.099 54.3021 45.0781 53C45.0781 51.8542 44.8438 51.125 44.375 50.8125C44.1875 50.6875 43.9219 50.625 43.5781 50.625C43.2448 50.625 42.8594 50.7812 42.4219 51.0938C41.9844 51.3958 41.5469 51.8073 41.1094 52.3281C40.6719 52.849 40.25 53.4583 39.8438 54.1562C39.4375 54.8542 39.0781 55.5885 38.7656 56.3594ZM59.8906 60.9062C60.1927 60.9062 60.3438 61.1094 60.3438 61.5156C60.3438 61.8594 60.2396 62.1927 60.0312 62.5156C59.75 63.1198 59.1875 63.6927 58.3438 64.2344C57.3854 64.849 56.4219 65.1562 55.4531 65.1562C53.776 65.1562 52.7135 64.4062 52.2656 62.9062C51.7344 61.125 52.5312 57.349 54.6562 51.5781C53.4583 51.474 52.8073 51.2656 52.7031 50.9531C52.6719 50.8594 52.6562 50.7604 52.6562 50.6562C52.6562 50.5417 52.7031 50.4115 52.7969 50.2656C52.901 50.1198 53.0312 49.9792 53.1875 49.8438C53.5521 49.5417 53.9219 49.3906 54.2969 49.3906H55.5312C56.6562 46.7552 57.4583 45.2552 57.9375 44.8906C58.1667 44.724 58.4219 44.6406 58.7031 44.6406C58.9844 44.6406 59.2188 44.6771 59.4062 44.75C59.5938 44.8229 59.7604 44.9271 59.9062 45.0625C60.2396 45.375 60.4062 45.724 60.4062 46.1094C60.4062 46.3177 60.3438 46.5573 60.2188 46.8281L59.0625 49.3438H59.4375C60.0833 49.3438 60.6042 49.3385 61 49.3281C61 49.3281 61.2969 49.3229 61.8906 49.3125C62.0885 49.3021 62.3333 49.2969 62.625 49.2969C62.9271 49.2969 63.0781 49.4062 63.0781 49.625C63.0781 51 61.4531 51.6875 58.2031 51.6875H58.0781L57.0156 54.4375C55.8177 57.6875 55.2188 59.9635 55.2188 61.2656C55.2188 61.6302 55.3021 61.9167 55.4688 62.125C55.6354 62.3229 55.9479 62.4219 56.4062 62.4219C56.8646 62.4219 57.2812 62.3438 57.6562 62.1875C58.0312 62.0312 58.3594 61.8594 58.6406 61.6719C58.9219 61.474 59.1615 61.2969 59.3594 61.1406C59.5677 60.9844 59.7448 60.9062 59.8906 60.9062ZM70.7344 45.1719C70.5052 45.4115 70.2448 45.6094 69.9531 45.7656C69.6615 45.9115 69.3542 46.0052 69.0312 46.0469C68.7083 46.0781 68.401 46.026 68.1094 45.8906C67.8281 45.7552 67.5833 45.5625 67.375 45.3125C66.9271 44.7917 66.7031 44.2656 66.7031 43.7344C66.7031 43.2031 66.7865 42.8073 66.9531 42.5469C67.1302 42.276 67.349 42.0573 67.6094 41.8906C68.1094 41.5677 68.5781 41.4062 69.0156 41.4062C69.4635 41.4062 69.8073 41.4375 70.0469 41.5C70.2969 41.5625 70.526 41.6667 70.7344 41.8125C71.2448 42.1562 71.5 42.5781 71.5 43.0781C71.5 43.5677 71.4271 43.9792 71.2812 44.3125C71.1458 44.6354 70.9635 44.9219 70.7344 45.1719ZM67.5312 62.0781C67.8021 62.0781 67.9375 62.2552 67.9375 62.6094C67.9375 63.0781 67.724 63.5625 67.2969 64.0625C66.6719 64.7917 65.8333 65.1562 64.7812 65.1562C63.5729 65.1562 62.7448 64.6667 62.2969 63.6875C62.1302 63.3438 62.0469 62.9271 62.0469 62.4375C62.0469 61.9479 62.1302 61.4062 62.2969 60.8125C62.474 60.2083 62.6875 59.5781 62.9375 58.9219C63.1979 58.2552 63.4792 57.5833 63.7812 56.9062L64.6094 54.9375C65.2135 53.4688 65.5156 52.5 65.5156 52.0312C65.5156 51.5625 65.4635 51.2552 65.3594 51.1094C65.2656 50.9531 65.1615 50.8333 65.0469 50.75L64.7344 50.5312C64.6302 50.4583 64.5781 50.3333 64.5781 50.1562C64.5781 49.9688 64.6458 49.7917 64.7812 49.625C64.9271 49.4583 65.1146 49.3125 65.3438 49.1875C65.8125 48.9479 66.3594 48.8281 66.9844 48.8281C68.5156 48.8281 69.2812 49.2292 69.2812 50.0312C69.2812 50.9688 69.0365 52.0417 68.5469 53.25C68.0573 54.4479 67.6406 55.4167 67.2969 56.1562L66.3594 58.3125C65.6719 59.8958 65.3281 61.0365 65.3281 61.7344C65.3281 62.1927 65.5573 62.4219 66.0156 62.4219C66.4635 62.4219 66.8021 62.3646 67.0312 62.25C67.2604 62.1354 67.4271 62.0781 67.5312 62.0781ZM71.5156 63.4844C71.3594 63.1406 71.2812 62.7344 71.2812 62.2656C71.2812 61.7969 71.3542 61.2812 71.5 60.7188C71.6458 60.1458 71.8333 59.5625 72.0625 58.9688C72.2917 58.375 72.5469 57.7708 72.8281 57.1562L73.625 55.3438C74.6562 52.9583 75.0365 51.5521 74.7656 51.125C74.6406 50.9271 74.401 50.7292 74.0469 50.5312C73.9323 50.4583 73.875 50.3333 73.875 50.1562C73.875 49.9688 73.9479 49.7917 74.0938 49.625C74.25 49.4583 74.4531 49.3125 74.7031 49.1875C75.2031 48.9479 75.7083 48.8281 76.2188 48.8281C76.7292 48.8281 77.1146 48.8854 77.375 49C77.6458 49.1042 77.8698 49.2396 78.0469 49.4062C78.3802 49.75 78.5469 50.1667 78.5469 50.6562C78.5469 51.1458 78.4531 51.6979 78.2656 52.3125C78.0781 52.9271 77.8438 53.5729 77.5625 54.25C77.2812 54.9271 76.974 55.6198 76.6406 56.3281L75.7188 58.375C75.0625 59.8854 74.7344 60.8854 74.7344 61.375C74.7344 62.3333 75.0729 62.8125 75.75 62.8125C77.4896 62.8125 79.1198 61.7812 80.6406 59.7188C81.526 58.5208 82.1615 57.2188 82.5469 55.8125C82.724 55.1458 82.8125 54.5417 82.8125 54C82.8125 53.4479 82.7917 52.9896 82.75 52.625C82.7188 52.2604 82.6615 51.9375 82.5781 51.6562C82.4427 51.1562 82.2135 50.724 81.8906 50.3594C81.6719 50.0885 81.7708 49.7708 82.1875 49.4062C82.6458 49.0208 83.2969 48.8281 84.1406 48.8281C84.6615 48.8281 85.1198 49.0729 85.5156 49.5625C86.0156 50.1458 86.2656 50.9844 86.2656 52.0781C86.2656 53.1615 86.1042 54.2292 85.7812 55.2812C85.4583 56.3229 85.0156 57.3281 84.4531 58.2969C83.8906 59.2552 83.224 60.151 82.4531 60.9844C81.6927 61.8177 80.8698 62.5417 79.9844 63.1562C78.0885 64.4896 76.1927 65.1562 74.2969 65.1562C72.9323 65.1562 72.0052 64.599 71.5156 63.4844ZM99.8594 60.8438C99.8594 61.8021 100.198 62.2812 100.875 62.2812C101.344 62.2812 101.729 62.2083 102.031 62.0625C102.344 61.9167 102.552 61.8438 102.656 61.8438C102.875 61.8438 102.984 61.9583 102.984 62.1875C102.984 63.0833 102.516 63.8542 101.578 64.5C100.589 65.1771 99.5781 65.3438 98.5469 65C97.8698 64.7604 97.3698 64.2448 97.0469 63.4531C96.8906 63.0469 96.8125 62.6771 96.8125 62.3438C96.8125 61.8021 96.8646 61.2292 96.9688 60.625C96 62.6042 94.7969 63.9688 93.3594 64.7188C92.7865 65.0104 92.1771 65.1562 91.5312 65.1562C90.8854 65.1562 90.3229 65.026 89.8438 64.7656C89.375 64.4948 88.974 64.125 88.6406 63.6562C87.9635 62.6771 87.6562 61.4479 87.7188 59.9688C87.7812 58.1146 88.3281 56.2969 89.3594 54.5156C90.3073 52.849 91.5052 51.4896 92.9531 50.4375C94.401 49.3646 95.7552 48.8281 97.0156 48.8281C98.276 48.8281 99.2917 49.4062 100.062 50.5625C100.781 49.4062 101.417 48.8281 101.969 48.8281C102.562 48.8281 103.01 48.9375 103.312 49.1562C103.885 49.5729 104.089 49.9375 103.922 50.25C101.307 55.6042 99.9635 58.9375 99.8906 60.25C99.8698 60.4375 99.8594 60.6354 99.8594 60.8438ZM91.1875 60.9062C91.1875 62.1562 91.5885 62.7812 92.3906 62.7812C93.0052 62.7812 93.7604 62.2604 94.6562 61.2188C95.9688 59.6875 97.1302 57.625 98.1406 55.0312C98.4635 54.2188 98.7344 53.4062 98.9531 52.5938C98.9115 51.8854 98.6146 51.3646 98.0625 51.0312C97.875 50.9167 97.5938 50.8594 97.2188 50.8594C96.8542 50.8594 96.4219 50.9948 95.9219 51.2656C95.4323 51.5365 94.9531 51.9062 94.4844 52.375C94.026 52.8438 93.5938 53.401 93.1875 54.0469C92.7917 54.6823 92.4427 55.375 92.1406 56.125C91.5052 57.7292 91.1875 59.3229 91.1875 60.9062ZM114.234 60.9062C114.536 60.9062 114.688 61.1094 114.688 61.5156C114.688 61.8594 114.583 62.1927 114.375 62.5156C114.094 63.1198 113.531 63.6927 112.688 64.2344C111.729 64.849 110.766 65.1562 109.797 65.1562C108.12 65.1562 107.057 64.4062 106.609 62.9062C106.078 61.125 106.875 57.349 109 51.5781C107.802 51.474 107.151 51.2656 107.047 50.9531C107.016 50.8594 107 50.7604 107 50.6562C107 50.5417 107.047 50.4115 107.141 50.2656C107.245 50.1198 107.375 49.9792 107.531 49.8438C107.896 49.5417 108.266 49.3906 108.641 49.3906H109.875C111 46.7552 111.802 45.2552 112.281 44.8906C112.51 44.724 112.766 44.6406 113.047 44.6406C113.328 44.6406 113.562 44.6771 113.75 44.75C113.938 44.8229 114.104 44.9271 114.25 45.0625C114.583 45.375 114.75 45.724 114.75 46.1094C114.75 46.3177 114.688 46.5573 114.562 46.8281L113.406 49.3438H113.781C114.427 49.3438 114.948 49.3385 115.344 49.3281C115.344 49.3281 115.641 49.3229 116.234 49.3125C116.432 49.3021 116.677 49.2969 116.969 49.2969C117.271 49.2969 117.422 49.4062 117.422 49.625C117.422 51 115.797 51.6875 112.547 51.6875H112.422L111.359 54.4375C110.161 57.6875 109.562 59.9635 109.562 61.2656C109.562 61.6302 109.646 61.9167 109.812 62.125C109.979 62.3229 110.292 62.4219 110.75 62.4219C111.208 62.4219 111.625 62.3438 112 62.1875C112.375 62.0312 112.703 61.8594 112.984 61.6719C113.266 61.474 113.505 61.2969 113.703 61.1406C113.911 60.9844 114.089 60.9062 114.234 60.9062ZM116.797 59.5312C116.839 58.625 116.99 57.7604 117.25 56.9375C117.51 56.1042 117.859 55.3021 118.297 54.5312C118.734 53.75 119.245 53.0156 119.828 52.3281C120.422 51.6302 121.062 51.0208 121.75 50.5C123.24 49.3854 124.745 48.8281 126.266 48.8281C128.047 48.8281 129.234 49.5625 129.828 51.0312C130.036 51.5312 130.135 52.125 130.125 52.8125C130.115 53.4896 129.984 54.1198 129.734 54.7031C129.484 55.276 129.135 55.8021 128.688 56.2812C128.25 56.75 127.724 57.1719 127.109 57.5469C126.505 57.9219 125.844 58.2396 125.125 58.5C123.646 59.0208 122.062 59.2917 120.375 59.3125C120.333 59.4583 120.307 59.6771 120.297 59.9688C120.286 60.2604 120.318 60.5885 120.391 60.9531C120.464 61.3073 120.589 61.625 120.766 61.9062C121.141 62.5312 121.682 62.8438 122.391 62.8438C123.599 62.8438 124.776 62.4896 125.922 61.7812C126.328 61.5417 126.656 61.2969 126.906 61.0469C127.167 60.7865 127.391 60.6562 127.578 60.6562C127.766 60.6562 127.927 60.7708 128.062 61C128.208 61.2188 128.281 61.4688 128.281 61.75C128.281 62.3021 128.125 62.7812 127.812 63.1875C126.5 64.5 124.547 65.1562 121.953 65.1562C120.422 65.1562 119.193 64.6979 118.266 63.7812C117.224 62.7396 116.734 61.3229 116.797 59.5312ZM125.922 50.9062C124.828 50.9062 123.776 51.6562 122.766 53.1562C121.911 54.4479 121.224 55.9792 120.703 57.75C122.443 57.5729 123.953 56.8854 125.234 55.6875C126.411 54.5625 127 53.4844 127 52.4531C127 51.4219 126.641 50.9062 125.922 50.9062Z" fill="white"/>
</svg>
