<svg width="228" height="114" viewBox="0 0 228 114" fill="none" xmlns="http://www.w3.org/2000/svg">
<path d="M52.0781 58.4375L52.0938 57.9844C52.2083 54.8698 52.9948 51.9271 54.4531 49.1562C55.7969 46.625 57.4896 44.5781 59.5312 43.0156C61.5521 41.474 63.5208 40.7031 65.4375 40.7031C66.8958 40.7031 68.0469 41.2083 68.8906 42.2188C69.6094 43.0938 69.9688 44.1667 69.9688 45.4375C69.9688 46.9583 69.4115 48.4583 68.2969 49.9375C67.651 50.7917 66.9635 51.4062 66.2344 51.7812C65.8906 51.9688 65.5677 52.0625 65.2656 52.0625C64.974 52.0625 64.7031 52 64.4531 51.875C64.2031 51.75 63.9844 51.5938 63.7969 51.4062C63.4115 51 63.2188 50.6354 63.2188 50.3125C63.2188 49.9896 63.3021 49.7656 63.4688 49.6406C65.1771 48.4115 66.3385 47.1458 66.9531 45.8438C67.1927 45.3438 67.3125 44.8542 67.3125 44.375C67.3125 43.3646 66.8333 42.8594 65.875 42.8594C64.375 42.8594 62.8281 43.6771 61.2344 45.3125C59.7448 46.8229 58.4948 48.7188 57.4844 51C56.4323 53.3438 55.875 55.4948 55.8125 57.4531L55.7969 58.0469C55.7969 60.3906 56.2917 61.9271 57.2812 62.6562C57.6354 62.9167 58.0573 63.0469 58.5469 63.0469C59.0469 63.0469 59.5156 62.9844 59.9531 62.8594C60.3906 62.7344 60.8281 62.5625 61.2656 62.3438C61.974 61.9792 62.8802 61.349 63.9844 60.4531C64.3177 60.1927 64.5938 60.2292 64.8125 60.5625C65 60.8333 65.0938 61.1458 65.0938 61.5C65.0938 62.0938 65.0104 62.5 64.8438 62.7188C64.6875 62.9271 64.4115 63.1771 64.0156 63.4688C63.6302 63.7604 63.1562 64.0312 62.5938 64.2812C61.2812 64.8646 59.9948 65.1562 58.7344 65.1562C57.474 65.1562 56.4583 65.0052 55.6875 64.7031C54.9167 64.3906 54.2656 63.9479 53.7344 63.375C52.6302 62.1667 52.0781 60.5208 52.0781 58.4375ZM68.8281 64.625C68.6198 64.4688 68.4531 64.2969 68.3281 64.1094C68.2031 63.9115 68.1354 63.7448 68.125 63.6094C68.1146 63.4635 68.1406 63.2917 68.2031 63.0938C68.276 62.8854 68.3698 62.6354 68.4844 62.3438C70.6094 57.1146 71.6719 53.6042 71.6719 51.8125C71.6406 51.3125 71.4688 50.9583 71.1562 50.75L70.8438 50.5312C70.75 50.4583 70.6979 50.3333 70.6875 50.1562C70.6875 49.9688 70.7552 49.7917 70.8906 49.625C71.026 49.4583 71.2031 49.3125 71.4219 49.1875C71.8698 48.9479 72.3281 48.8281 72.7969 48.8281C73.276 48.8281 73.6458 48.8802 73.9062 48.9844C74.1771 49.0885 74.4062 49.2292 74.5938 49.4062C74.9896 49.7812 75.1875 50.1771 75.1875 50.5938C75.1979 51.0104 75.151 51.4323 75.0469 51.8594C74.9531 52.2865 74.8385 52.7083 74.7031 53.125C74.5677 53.5312 74.4323 53.9219 74.2969 54.2969C74.1615 54.6615 74.0729 54.9323 74.0312 55.1094C73.9479 55.474 73.9167 55.7031 73.9375 55.7969C74.1875 55.5781 74.3385 55.3646 74.3906 55.1562L75 54C76.3542 51.5625 77.6771 49.9479 78.9688 49.1562C79.3438 48.9375 79.7917 48.8281 80.3125 48.8281C80.8438 48.8281 81.2708 49.0156 81.5938 49.3906C81.9167 49.7552 82.0833 50.1615 82.0938 50.6094C82.1146 51.0573 82.0833 51.4323 82 51.7344C81.9271 52.026 81.8125 52.3021 81.6562 52.5625C81.3125 53.1458 80.8958 53.4375 80.4062 53.4375C80.2708 53.4375 80.1458 53.3906 80.0312 53.2969L79.6875 53C79.3438 52.6979 79.0104 52.5469 78.6875 52.5469C78.375 52.5469 77.9896 52.7552 77.5312 53.1719C77.0833 53.5885 76.6146 54.125 76.125 54.7812C74.4792 56.9583 73.1354 59.3958 72.0938 62.0938L71.4062 63.9062C71.2292 64.3542 71.0729 64.6771 70.9375 64.875C70.8021 65.0625 70.599 65.1562 70.3281 65.1562C70.0677 65.1562 69.8021 65.1042 69.5312 65C69.2708 64.9062 69.0365 64.7812 68.8281 64.625ZM81.9844 59.5312C82.026 58.625 82.1771 57.7604 82.4375 56.9375C82.6979 56.1042 83.0469 55.3021 83.4844 54.5312C83.9219 53.75 84.4323 53.0156 85.0156 52.3281C85.6094 51.6302 86.25 51.0208 86.9375 50.5C88.4271 49.3854 89.9323 48.8281 91.4531 48.8281C93.2344 48.8281 94.4219 49.5625 95.0156 51.0312C95.224 51.5312 95.3229 52.125 95.3125 52.8125C95.3021 53.4896 95.1719 54.1198 94.9219 54.7031C94.6719 55.276 94.3229 55.8021 93.875 56.2812C93.4375 56.75 92.9115 57.1719 92.2969 57.5469C91.6927 57.9219 91.0312 58.2396 90.3125 58.5C88.8333 59.0208 87.25 59.2917 85.5625 59.3125C85.5208 59.4583 85.4948 59.6771 85.4844 59.9688C85.474 60.2604 85.5052 60.5885 85.5781 60.9531C85.651 61.3073 85.776 61.625 85.9531 61.9062C86.3281 62.5312 86.8698 62.8438 87.5781 62.8438C88.7865 62.8438 89.9635 62.4896 91.1094 61.7812C91.5156 61.5417 91.8438 61.2969 92.0938 61.0469C92.3542 60.7865 92.5781 60.6562 92.7656 60.6562C92.9531 60.6562 93.1146 60.7708 93.25 61C93.3958 61.2188 93.4688 61.4688 93.4688 61.75C93.4688 62.3021 93.3125 62.7812 93 63.1875C91.6875 64.5 89.7344 65.1562 87.1406 65.1562C85.6094 65.1562 84.3802 64.6979 83.4531 63.7812C82.4115 62.7396 81.9219 61.3229 81.9844 59.5312ZM91.1094 50.9062C90.0156 50.9062 88.9635 51.6562 87.9531 53.1562C87.099 54.4479 86.4115 55.9792 85.8906 57.75C87.6302 57.5729 89.1406 56.8854 90.4219 55.6875C91.599 54.5625 92.1875 53.4844 92.1875 52.4531C92.1875 51.4219 91.8281 50.9062 91.1094 50.9062ZM108.984 60.8438C108.984 61.8021 109.323 62.2812 110 62.2812C110.469 62.2812 110.854 62.2083 111.156 62.0625C111.469 61.9167 111.677 61.8438 111.781 61.8438C112 61.8438 112.109 61.9583 112.109 62.1875C112.109 63.0833 111.641 63.8542 110.703 64.5C109.714 65.1771 108.703 65.3438 107.672 65C106.995 64.7604 106.495 64.2448 106.172 63.4531C106.016 63.0469 105.938 62.6771 105.938 62.3438C105.938 61.8021 105.99 61.2292 106.094 60.625C105.125 62.6042 103.922 63.9688 102.484 64.7188C101.911 65.0104 101.302 65.1562 100.656 65.1562C100.01 65.1562 99.4479 65.026 98.9688 64.7656C98.5 64.4948 98.099 64.125 97.7656 63.6562C97.0885 62.6771 96.7812 61.4479 96.8438 59.9688C96.9062 58.1146 97.4531 56.2969 98.4844 54.5156C99.4323 52.849 100.63 51.4896 102.078 50.4375C103.526 49.3646 104.88 48.8281 106.141 48.8281C107.401 48.8281 108.417 49.4062 109.188 50.5625C109.906 49.4062 110.542 48.8281 111.094 48.8281C111.688 48.8281 112.135 48.9375 112.438 49.1562C113.01 49.5729 113.214 49.9375 113.047 50.25C110.432 55.6042 109.089 58.9375 109.016 60.25C108.995 60.4375 108.984 60.6354 108.984 60.8438ZM100.312 60.9062C100.312 62.1562 100.714 62.7812 101.516 62.7812C102.13 62.7812 102.885 62.2604 103.781 61.2188C105.094 59.6875 106.255 57.625 107.266 55.0312C107.589 54.2188 107.859 53.4062 108.078 52.5938C108.036 51.8854 107.74 51.3646 107.188 51.0312C107 50.9167 106.719 50.8594 106.344 50.8594C105.979 50.8594 105.547 50.9948 105.047 51.2656C104.557 51.5365 104.078 51.9062 103.609 52.375C103.151 52.8438 102.719 53.401 102.312 54.0469C101.917 54.6823 101.568 55.375 101.266 56.125C100.63 57.7292 100.312 59.3229 100.312 60.9062ZM123.359 60.9062C123.661 60.9062 123.812 61.1094 123.812 61.5156C123.812 61.8594 123.708 62.1927 123.5 62.5156C123.219 63.1198 122.656 63.6927 121.812 64.2344C120.854 64.849 119.891 65.1562 118.922 65.1562C117.245 65.1562 116.182 64.4062 115.734 62.9062C115.203 61.125 116 57.349 118.125 51.5781C116.927 51.474 116.276 51.2656 116.172 50.9531C116.141 50.8594 116.125 50.7604 116.125 50.6562C116.125 50.5417 116.172 50.4115 116.266 50.2656C116.37 50.1198 116.5 49.9792 116.656 49.8438C117.021 49.5417 117.391 49.3906 117.766 49.3906H119C120.125 46.7552 120.927 45.2552 121.406 44.8906C121.635 44.724 121.891 44.6406 122.172 44.6406C122.453 44.6406 122.688 44.6771 122.875 44.75C123.062 44.8229 123.229 44.9271 123.375 45.0625C123.708 45.375 123.875 45.724 123.875 46.1094C123.875 46.3177 123.812 46.5573 123.688 46.8281L122.531 49.3438H122.906C123.552 49.3438 124.073 49.3385 124.469 49.3281C124.469 49.3281 124.766 49.3229 125.359 49.3125C125.557 49.3021 125.802 49.2969 126.094 49.2969C126.396 49.2969 126.547 49.4062 126.547 49.625C126.547 51 124.922 51.6875 121.672 51.6875H121.547L120.484 54.4375C119.286 57.6875 118.688 59.9635 118.688 61.2656C118.688 61.6302 118.771 61.9167 118.938 62.125C119.104 62.3229 119.417 62.4219 119.875 62.4219C120.333 62.4219 120.75 62.3438 121.125 62.1875C121.5 62.0312 121.828 61.8594 122.109 61.6719C122.391 61.474 122.63 61.2969 122.828 61.1406C123.036 60.9844 123.214 60.9062 123.359 60.9062ZM125.922 59.5312C125.964 58.625 126.115 57.7604 126.375 56.9375C126.635 56.1042 126.984 55.3021 127.422 54.5312C127.859 53.75 128.37 53.0156 128.953 52.3281C129.547 51.6302 130.188 51.0208 130.875 50.5C132.365 49.3854 133.87 48.8281 135.391 48.8281C137.172 48.8281 138.359 49.5625 138.953 51.0312C139.161 51.5312 139.26 52.125 139.25 52.8125C139.24 53.4896 139.109 54.1198 138.859 54.7031C138.609 55.276 138.26 55.8021 137.812 56.2812C137.375 56.75 136.849 57.1719 136.234 57.5469C135.63 57.9219 134.969 58.2396 134.25 58.5C132.771 59.0208 131.188 59.2917 129.5 59.3125C129.458 59.4583 129.432 59.6771 129.422 59.9688C129.411 60.2604 129.443 60.5885 129.516 60.9531C129.589 61.3073 129.714 61.625 129.891 61.9062C130.266 62.5312 130.807 62.8438 131.516 62.8438C132.724 62.8438 133.901 62.4896 135.047 61.7812C135.453 61.5417 135.781 61.2969 136.031 61.0469C136.292 60.7865 136.516 60.6562 136.703 60.6562C136.891 60.6562 137.052 60.7708 137.188 61C137.333 61.2188 137.406 61.4688 137.406 61.75C137.406 62.3021 137.25 62.7812 136.938 63.1875C135.625 64.5 133.672 65.1562 131.078 65.1562C129.547 65.1562 128.318 64.6979 127.391 63.7812C126.349 62.7396 125.859 61.3229 125.922 59.5312ZM135.047 50.9062C133.953 50.9062 132.901 51.6562 131.891 53.1562C131.036 54.4479 130.349 55.9792 129.828 57.75C131.568 57.5729 133.078 56.8854 134.359 55.6875C135.536 54.5625 136.125 53.4844 136.125 52.4531C136.125 51.4219 135.766 50.9062 135.047 50.9062ZM165.375 44.4844C165.375 43.401 164.641 42.8594 163.172 42.8594C161.484 42.8594 159.891 43.6667 158.391 45.2812C157.505 46.2396 156.88 47.2812 156.516 48.4062C156.328 48.9479 156.234 49.4375 156.234 49.875C156.234 50.3125 156.281 50.6719 156.375 50.9531C156.479 51.224 156.609 51.4479 156.766 51.625C157.089 52.0104 157.464 52.1562 157.891 52.0625C158.401 51.8542 158.849 51.75 159.234 51.75C159.63 51.75 159.943 51.8021 160.172 51.9062C160.411 52 160.609 52.1198 160.766 52.2656C161.057 52.5573 161.203 52.8385 161.203 53.1094C161.203 53.6406 161.026 53.9167 160.672 53.9375C160.224 53.9688 159.682 54.1198 159.047 54.3906C158.422 54.6615 157.818 55.0104 157.234 55.4375C156.651 55.8542 156.13 56.3281 155.672 56.8594C154.63 58.0469 154.109 59.2552 154.109 60.4844C154.109 61.7656 154.615 62.6146 155.625 63.0312C155.958 63.1771 156.37 63.25 156.859 63.25C157.349 63.25 157.823 63.1458 158.281 62.9375C158.75 62.7188 159.156 62.4479 159.5 62.125C160.24 61.4167 160.62 60.6719 160.641 59.8906C160.661 58.901 160.255 58.2812 159.422 58.0312C159.203 57.9688 159.026 57.901 158.891 57.8281C158.766 57.7448 158.729 57.6146 158.781 57.4375C158.844 57.2604 158.964 57.0833 159.141 56.9062C159.578 56.4271 160.062 56.1875 160.594 56.1875C160.833 56.1875 161.193 56.2396 161.672 56.3438C162.568 56.5417 163.219 56.6406 163.625 56.6406C164.479 56.6406 165.151 56.5833 165.641 56.4688C166.13 56.3438 166.536 56.2396 166.859 56.1562C167.411 56 167.688 56.1302 167.688 56.5469C167.688 56.9635 167.573 57.349 167.344 57.7031C167.115 58.0469 166.807 58.349 166.422 58.6094C165.589 59.1615 164.568 59.4271 163.359 59.4062C163.391 59.5625 163.406 59.7188 163.406 59.875C163.406 60.4583 163.214 61.0625 162.828 61.6875C162.443 62.3125 161.922 62.8854 161.266 63.4062C159.776 64.5729 158.073 65.1562 156.156 65.1562C154.26 65.1562 152.818 64.625 151.828 63.5625C151.047 62.7188 150.656 61.7292 150.656 60.5938C150.656 58.3229 151.594 56.3073 153.469 54.5469C154.104 53.9427 154.708 53.526 155.281 53.2969C154.167 52.8281 153.422 51.9167 153.047 50.5625C152.932 50.125 152.875 49.6146 152.875 49.0312C152.875 48.4479 152.99 47.8177 153.219 47.1406C153.448 46.4531 153.771 45.7969 154.188 45.1719C154.615 44.5469 155.12 43.9635 155.703 43.4219C156.297 42.8698 156.953 42.3958 157.672 42C159.245 41.125 160.896 40.6875 162.625 40.6875C164.375 40.6875 165.714 41.2083 166.641 42.25C167.401 43.0938 167.781 44.1198 167.781 45.3281C167.781 46.599 167.245 47.8594 166.172 49.1094C165.13 50.3385 164.13 50.9531 163.172 50.9531C162.63 50.9531 162.141 50.724 161.703 50.2656C161.307 49.849 161.109 49.4792 161.109 49.1562C161.109 48.8333 161.198 48.625 161.375 48.5312C163.198 47.5417 164.417 46.5573 165.031 45.5781C165.26 45.2135 165.375 44.849 165.375 44.4844ZM78.4844 101.844C78.7448 101.844 78.875 102.031 78.875 102.406C78.875 102.771 78.8073 103.073 78.6719 103.312C78.5365 103.552 78.3802 103.771 78.2031 103.969C78.026 104.167 77.8021 104.354 77.5312 104.531C76.8958 104.948 76.224 105.156 75.5156 105.156C74.8177 105.156 74.2604 105.073 73.8438 104.906C73.4375 104.729 73.0833 104.469 72.7812 104.125C72.1354 103.406 71.8125 102.411 71.8125 101.141C71.8125 99.7865 72.0729 98.1354 72.5938 96.1875C73.1146 94.2292 73.6146 92.5573 74.0938 91.1719C74.5833 89.776 75.0833 88.4479 75.5938 87.1875L77 83.6094C75.4583 84.9948 73.5052 87.9062 71.1406 92.3438L67.3594 99.5C65.3385 103.271 63.8958 105.156 63.0312 105.156C62.1875 105.156 61.6094 104.792 61.2969 104.062C61.0156 103.365 60.875 102.182 60.875 100.516C60.875 98.8385 61.0052 97.2344 61.2656 95.7031C61.5365 94.1615 61.875 92.6562 62.2812 91.1875C62.9896 88.5938 63.9062 86.0208 65.0312 83.4688C63.9375 84.0833 62.724 85.4531 61.3906 87.5781C60.3698 89.276 59.651 90.5156 59.2344 91.2969L55.2031 98.7188C53.526 101.771 52.1771 103.656 51.1562 104.375C50.4167 104.896 49.6198 105.156 48.7656 105.156C48.0365 105.156 47.5104 104.927 47.1875 104.469C47.0625 104.281 47 104.109 47 103.953C47 103.797 47.0469 103.703 47.1406 103.672C47.7865 103.495 48.2448 103.312 48.5156 103.125C48.776 102.927 49.0365 102.729 49.2969 102.531C49.5573 102.323 49.9375 101.891 50.4375 101.234C50.9375 100.568 51.4792 99.7708 52.0625 98.8438C52.6458 97.9062 53.2552 96.8594 53.8906 95.7031L55.875 92.0469C57.7083 88.5052 59.625 85.6667 61.625 83.5312C62.3333 82.7708 63.0312 82.1823 63.7188 81.7656C64.4062 81.276 65.2031 80.9479 66.1094 80.7812C66.3594 80.7292 66.5885 80.7031 66.7969 80.7031C67.0156 80.7031 67.2552 80.7344 67.5156 80.7969C67.7865 80.8594 68.0208 80.9583 68.2188 81.0938C68.6771 81.4062 68.8125 81.8229 68.625 82.3438C68.5417 82.6562 68.3802 83.125 68.1406 83.75L67.2969 85.9844C65.3281 91.4219 64.25 96.3698 64.0625 100.828C64.6146 99.8802 65.1719 98.8438 65.7344 97.7188L67.5 94.2344L69.3594 90.6875C72.224 85.375 74.8854 82.3333 77.3438 81.5625C77.8542 81.3958 78.2812 81.3125 78.625 81.3125C78.9688 81.3125 79.2396 81.3594 79.4375 81.4531C79.6354 81.5365 79.8125 81.6458 79.9688 81.7812C80.3333 82.1146 80.4583 82.4583 80.3438 82.8125C80.2292 83.1562 80.0781 83.599 79.8906 84.1406L77.625 90.75L76.8125 93.3438C75.9167 96.3438 75.3854 98.6458 75.2188 100.25C75.1562 100.927 75.2292 101.458 75.4375 101.844C75.6562 102.219 75.9531 102.406 76.3281 102.406C76.7031 102.406 76.9948 102.38 77.2031 102.328C77.4219 102.266 77.6094 102.198 77.7656 102.125L78.1719 101.938C78.2865 101.875 78.3906 101.844 78.4844 101.844ZM82.7812 103.938C82.3438 103.521 82 102.995 81.75 102.359C81.5 101.714 81.3698 100.953 81.3594 100.078C81.349 99.2031 81.4531 98.3177 81.6719 97.4219C81.901 96.526 82.2188 95.6615 82.625 94.8281C83.0417 93.9948 83.5365 93.2135 84.1094 92.4844C84.6927 91.7552 85.3333 91.1198 86.0312 90.5781C87.5521 89.4115 89.1302 88.8281 90.7656 88.8281C92.9115 88.8281 94.3646 89.7708 95.125 91.6562C95.6667 93.0208 95.6979 94.6719 95.2188 96.6094C94.7812 98.3906 93.9792 100.026 92.8125 101.516C91.6562 103.005 90.2917 104.062 88.7188 104.688C87.9271 105 87.1458 105.156 86.375 105.156C85.6146 105.156 84.9323 105.057 84.3281 104.859C83.7344 104.661 83.2188 104.354 82.7812 103.938ZM85.7656 96.3594C85.4531 97.1302 85.2031 97.9219 85.0156 98.7344C84.8385 99.5469 84.7552 100.318 84.7656 101.047C84.776 101.766 84.8854 102.333 85.0938 102.75C85.3125 103.156 85.6615 103.359 86.1406 103.359C86.6198 103.359 87.0885 103.198 87.5469 102.875C88.0156 102.542 88.4688 102.104 88.9062 101.562C89.3438 101.021 89.7552 100.396 90.1406 99.6875C90.526 98.9792 90.8646 98.2396 91.1562 97.4688C91.7917 95.7917 92.099 94.3021 92.0781 93C92.0781 91.8542 91.8438 91.125 91.375 90.8125C91.1875 90.6875 90.9219 90.625 90.5781 90.625C90.2448 90.625 89.8594 90.7812 89.4219 91.0938C88.9844 91.3958 88.5469 91.8073 88.1094 92.3281C87.6719 92.849 87.25 93.4583 86.8438 94.1562C86.4375 94.8542 86.0781 95.5885 85.7656 96.3594ZM106.891 100.906C107.193 100.906 107.344 101.109 107.344 101.516C107.344 101.859 107.24 102.193 107.031 102.516C106.75 103.12 106.188 103.693 105.344 104.234C104.385 104.849 103.422 105.156 102.453 105.156C100.776 105.156 99.7135 104.406 99.2656 102.906C98.7344 101.125 99.5312 97.349 101.656 91.5781C100.458 91.474 99.8073 91.2656 99.7031 90.9531C99.6719 90.8594 99.6562 90.7604 99.6562 90.6562C99.6562 90.5417 99.7031 90.4115 99.7969 90.2656C99.901 90.1198 100.031 89.9792 100.188 89.8438C100.552 89.5417 100.922 89.3906 101.297 89.3906H102.531C103.656 86.7552 104.458 85.2552 104.938 84.8906C105.167 84.724 105.422 84.6406 105.703 84.6406C105.984 84.6406 106.219 84.6771 106.406 84.75C106.594 84.8229 106.76 84.9271 106.906 85.0625C107.24 85.375 107.406 85.724 107.406 86.1094C107.406 86.3177 107.344 86.5573 107.219 86.8281L106.062 89.3438H106.438C107.083 89.3438 107.604 89.3385 108 89.3281C108 89.3281 108.297 89.3229 108.891 89.3125C109.089 89.3021 109.333 89.2969 109.625 89.2969C109.927 89.2969 110.078 89.4062 110.078 89.625C110.078 91 108.453 91.6875 105.203 91.6875H105.078L104.016 94.4375C102.818 97.6875 102.219 99.9635 102.219 101.266C102.219 101.63 102.302 101.917 102.469 102.125C102.635 102.323 102.948 102.422 103.406 102.422C103.865 102.422 104.281 102.344 104.656 102.188C105.031 102.031 105.359 101.859 105.641 101.672C105.922 101.474 106.161 101.297 106.359 101.141C106.568 100.984 106.745 100.906 106.891 100.906ZM117.734 85.1719C117.505 85.4115 117.245 85.6094 116.953 85.7656C116.661 85.9115 116.354 86.0052 116.031 86.0469C115.708 86.0781 115.401 86.026 115.109 85.8906C114.828 85.7552 114.583 85.5625 114.375 85.3125C113.927 84.7917 113.703 84.2656 113.703 83.7344C113.703 83.2031 113.786 82.8073 113.953 82.5469C114.13 82.276 114.349 82.0573 114.609 81.8906C115.109 81.5677 115.578 81.4062 116.016 81.4062C116.464 81.4062 116.807 81.4375 117.047 81.5C117.297 81.5625 117.526 81.6667 117.734 81.8125C118.245 82.1562 118.5 82.5781 118.5 83.0781C118.5 83.5677 118.427 83.9792 118.281 84.3125C118.146 84.6354 117.964 84.9219 117.734 85.1719ZM114.531 102.078C114.802 102.078 114.938 102.255 114.938 102.609C114.938 103.078 114.724 103.562 114.297 104.062C113.672 104.792 112.833 105.156 111.781 105.156C110.573 105.156 109.745 104.667 109.297 103.688C109.13 103.344 109.047 102.927 109.047 102.438C109.047 101.948 109.13 101.406 109.297 100.812C109.474 100.208 109.688 99.5781 109.938 98.9219C110.198 98.2552 110.479 97.5833 110.781 96.9062L111.609 94.9375C112.214 93.4688 112.516 92.5 112.516 92.0312C112.516 91.5625 112.464 91.2552 112.359 91.1094C112.266 90.9531 112.161 90.8333 112.047 90.75L111.734 90.5312C111.63 90.4583 111.578 90.3333 111.578 90.1562C111.578 89.9688 111.646 89.7917 111.781 89.625C111.927 89.4583 112.115 89.3125 112.344 89.1875C112.812 88.9479 113.359 88.8281 113.984 88.8281C115.516 88.8281 116.281 89.2292 116.281 90.0312C116.281 90.9688 116.036 92.0417 115.547 93.25C115.057 94.4479 114.641 95.4167 114.297 96.1562L113.359 98.3125C112.672 99.8958 112.328 101.036 112.328 101.734C112.328 102.193 112.557 102.422 113.016 102.422C113.464 102.422 113.802 102.365 114.031 102.25C114.26 102.135 114.427 102.078 114.531 102.078ZM118.516 103.484C118.359 103.141 118.281 102.734 118.281 102.266C118.281 101.797 118.354 101.281 118.5 100.719C118.646 100.146 118.833 99.5625 119.062 98.9688C119.292 98.375 119.547 97.7708 119.828 97.1562L120.625 95.3438C121.656 92.9583 122.036 91.5521 121.766 91.125C121.641 90.9271 121.401 90.7292 121.047 90.5312C120.932 90.4583 120.875 90.3333 120.875 90.1562C120.875 89.9688 120.948 89.7917 121.094 89.625C121.25 89.4583 121.453 89.3125 121.703 89.1875C122.203 88.9479 122.708 88.8281 123.219 88.8281C123.729 88.8281 124.115 88.8854 124.375 89C124.646 89.1042 124.87 89.2396 125.047 89.4062C125.38 89.75 125.547 90.1667 125.547 90.6562C125.547 91.1458 125.453 91.6979 125.266 92.3125C125.078 92.9271 124.844 93.5729 124.562 94.25C124.281 94.9271 123.974 95.6198 123.641 96.3281L122.719 98.375C122.062 99.8854 121.734 100.885 121.734 101.375C121.734 102.333 122.073 102.812 122.75 102.812C124.49 102.812 126.12 101.781 127.641 99.7188C128.526 98.5208 129.161 97.2188 129.547 95.8125C129.724 95.1458 129.812 94.5417 129.812 94C129.812 93.4479 129.792 92.9896 129.75 92.625C129.719 92.2604 129.661 91.9375 129.578 91.6562C129.443 91.1562 129.214 90.724 128.891 90.3594C128.672 90.0885 128.771 89.7708 129.188 89.4062C129.646 89.0208 130.297 88.8281 131.141 88.8281C131.661 88.8281 132.12 89.0729 132.516 89.5625C133.016 90.1458 133.266 90.9844 133.266 92.0781C133.266 93.1615 133.104 94.2292 132.781 95.2812C132.458 96.3229 132.016 97.3281 131.453 98.2969C130.891 99.2552 130.224 100.151 129.453 100.984C128.693 101.818 127.87 102.542 126.984 103.156C125.089 104.49 123.193 105.156 121.297 105.156C119.932 105.156 119.005 104.599 118.516 103.484ZM146.859 100.844C146.859 101.802 147.198 102.281 147.875 102.281C148.344 102.281 148.729 102.208 149.031 102.062C149.344 101.917 149.552 101.844 149.656 101.844C149.875 101.844 149.984 101.958 149.984 102.188C149.984 103.083 149.516 103.854 148.578 104.5C147.589 105.177 146.578 105.344 145.547 105C144.87 104.76 144.37 104.245 144.047 103.453C143.891 103.047 143.812 102.677 143.812 102.344C143.812 101.802 143.865 101.229 143.969 100.625C143 102.604 141.797 103.969 140.359 104.719C139.786 105.01 139.177 105.156 138.531 105.156C137.885 105.156 137.323 105.026 136.844 104.766C136.375 104.495 135.974 104.125 135.641 103.656C134.964 102.677 134.656 101.448 134.719 99.9688C134.781 98.1146 135.328 96.2969 136.359 94.5156C137.307 92.849 138.505 91.4896 139.953 90.4375C141.401 89.3646 142.755 88.8281 144.016 88.8281C145.276 88.8281 146.292 89.4062 147.062 90.5625C147.781 89.4062 148.417 88.8281 148.969 88.8281C149.562 88.8281 150.01 88.9375 150.312 89.1562C150.885 89.5729 151.089 89.9375 150.922 90.25C148.307 95.6042 146.964 98.9375 146.891 100.25C146.87 100.438 146.859 100.635 146.859 100.844ZM138.188 100.906C138.188 102.156 138.589 102.781 139.391 102.781C140.005 102.781 140.76 102.26 141.656 101.219C142.969 99.6875 144.13 97.625 145.141 95.0312C145.464 94.2188 145.734 93.4062 145.953 92.5938C145.911 91.8854 145.615 91.3646 145.062 91.0312C144.875 90.9167 144.594 90.8594 144.219 90.8594C143.854 90.8594 143.422 90.9948 142.922 91.2656C142.432 91.5365 141.953 91.9062 141.484 92.375C141.026 92.8438 140.594 93.401 140.188 94.0469C139.792 94.6823 139.443 95.375 139.141 96.125C138.505 97.7292 138.188 99.3229 138.188 100.906ZM161.234 100.906C161.536 100.906 161.688 101.109 161.688 101.516C161.688 101.859 161.583 102.193 161.375 102.516C161.094 103.12 160.531 103.693 159.688 104.234C158.729 104.849 157.766 105.156 156.797 105.156C155.12 105.156 154.057 104.406 153.609 102.906C153.078 101.125 153.875 97.349 156 91.5781C154.802 91.474 154.151 91.2656 154.047 90.9531C154.016 90.8594 154 90.7604 154 90.6562C154 90.5417 154.047 90.4115 154.141 90.2656C154.245 90.1198 154.375 89.9792 154.531 89.8438C154.896 89.5417 155.266 89.3906 155.641 89.3906H156.875C158 86.7552 158.802 85.2552 159.281 84.8906C159.51 84.724 159.766 84.6406 160.047 84.6406C160.328 84.6406 160.562 84.6771 160.75 84.75C160.938 84.8229 161.104 84.9271 161.25 85.0625C161.583 85.375 161.75 85.724 161.75 86.1094C161.75 86.3177 161.688 86.5573 161.562 86.8281L160.406 89.3438H160.781C161.427 89.3438 161.948 89.3385 162.344 89.3281C162.344 89.3281 162.641 89.3229 163.234 89.3125C163.432 89.3021 163.677 89.2969 163.969 89.2969C164.271 89.2969 164.422 89.4062 164.422 89.625C164.422 91 162.797 91.6875 159.547 91.6875H159.422L158.359 94.4375C157.161 97.6875 156.562 99.9635 156.562 101.266C156.562 101.63 156.646 101.917 156.812 102.125C156.979 102.323 157.292 102.422 157.75 102.422C158.208 102.422 158.625 102.344 159 102.188C159.375 102.031 159.703 101.859 159.984 101.672C160.266 101.474 160.505 101.297 160.703 101.141C160.911 100.984 161.089 100.906 161.234 100.906ZM163.797 99.5312C163.839 98.625 163.99 97.7604 164.25 96.9375C164.51 96.1042 164.859 95.3021 165.297 94.5312C165.734 93.75 166.245 93.0156 166.828 92.3281C167.422 91.6302 168.062 91.0208 168.75 90.5C170.24 89.3854 171.745 88.8281 173.266 88.8281C175.047 88.8281 176.234 89.5625 176.828 91.0312C177.036 91.5312 177.135 92.125 177.125 92.8125C177.115 93.4896 176.984 94.1198 176.734 94.7031C176.484 95.276 176.135 95.8021 175.688 96.2812C175.25 96.75 174.724 97.1719 174.109 97.5469C173.505 97.9219 172.844 98.2396 172.125 98.5C170.646 99.0208 169.062 99.2917 167.375 99.3125C167.333 99.4583 167.307 99.6771 167.297 99.9688C167.286 100.26 167.318 100.589 167.391 100.953C167.464 101.307 167.589 101.625 167.766 101.906C168.141 102.531 168.682 102.844 169.391 102.844C170.599 102.844 171.776 102.49 172.922 101.781C173.328 101.542 173.656 101.297 173.906 101.047C174.167 100.786 174.391 100.656 174.578 100.656C174.766 100.656 174.927 100.771 175.062 101C175.208 101.219 175.281 101.469 175.281 101.75C175.281 102.302 175.125 102.781 174.812 103.188C173.5 104.5 171.547 105.156 168.953 105.156C167.422 105.156 166.193 104.698 165.266 103.781C164.224 102.74 163.734 101.323 163.797 99.5312ZM172.922 90.9062C171.828 90.9062 170.776 91.6562 169.766 93.1562C168.911 94.4479 168.224 95.9792 167.703 97.75C169.443 97.5729 170.953 96.8854 172.234 95.6875C173.411 94.5625 174 93.4844 174 92.4531C174 91.4219 173.641 90.9062 172.922 90.9062Z" fill="#F6C76F"/>
<path d="M200.216 40.3728C200.242 40.235 200.187 40.0984 200.076 40.0228L196.697 37.7194L203.818 34.4372C203.937 34.3825 204.021 34.2674 204.036 34.1373C204.051 34.0068 203.996 33.8819 203.892 33.8111L199.329 30.7011C199.221 30.6274 199.078 30.6245 198.96 30.6935L188.53 36.8037C188.423 36.8666 188.352 36.9806 188.344 37.1047C188.335 37.229 188.39 37.3456 188.489 37.413L191.422 39.4118L182.769 45.2404C182.622 45.3402 182.562 45.5321 182.629 45.6915C182.655 45.7528 182.696 45.8022 182.747 45.837C182.829 45.8928 182.935 45.9108 183.039 45.8791L199.957 40.6664C200.09 40.6255 200.191 40.5109 200.216 40.3728Z" fill="#F6C76F"/>
<path d="M219.069 93.5155C219.165 93.3325 219.147 93.1108 219.022 92.9473L215.208 87.9659L226.792 86.8958C226.985 86.8779 227.154 86.7565 227.232 86.5791C227.311 86.4014 227.287 86.1959 227.17 86.0429L222.021 79.317C221.899 79.1577 221.697 79.0816 221.498 79.1201L203.967 82.5405C203.786 82.5755 203.635 82.702 203.569 82.8741C203.503 83.0467 203.53 83.2399 203.642 83.3858L206.951 87.7085L192.075 91.6258C191.821 91.693 191.652 91.9357 191.679 92.1963C191.689 92.2965 191.726 92.3877 191.784 92.4629C191.876 92.5836 192.019 92.6627 192.181 92.6699L218.571 93.8022C218.778 93.811 218.972 93.6989 219.069 93.5155Z" fill="#F6C76F"/>
<path d="M102.916 7.83781C103.065 7.73598 103.259 7.72939 103.413 7.82161L108.114 10.6312L107.885 0.478182C107.881 0.308858 107.97 0.150147 108.116 0.0643581C108.262 -0.0218244 108.442 -0.0212944 108.587 0.0650043L114.935 3.85851C115.085 3.94836 115.171 4.11594 115.158 4.29173L113.943 19.8387C113.931 19.999 113.836 20.142 113.694 20.2168C113.551 20.2912 113.38 20.2871 113.243 20.2048L109.163 17.7668L107.252 31.0598C107.219 31.287 107.026 31.4577 106.797 31.461C106.709 31.4622 106.626 31.4387 106.555 31.3962C106.441 31.3282 106.359 31.2119 106.336 31.0727L102.717 8.29765C102.688 8.1191 102.766 7.94002 102.916 7.83781Z" fill="#F6C76F"/>
<path d="M5.82843 81.1396C5.77694 80.9665 5.82985 80.7797 5.96474 80.6608L10.0744 77.0404L0.335271 74.1621C0.172855 74.1141 0.0486729 73.9815 0.0114979 73.8163C-0.025961 73.6507 0.0296447 73.4789 0.155878 73.3677L5.70484 68.4793C5.83627 68.3636 6.02215 68.3326 6.18543 68.3991L20.6211 74.2978C20.77 74.3584 20.8774 74.4921 20.905 74.6508C20.9323 74.8097 20.8764 74.9707 20.7561 75.0767L17.1898 78.2184L29.2666 84.0927C29.4729 84.1934 29.5764 84.4298 29.5099 84.6485C29.4842 84.7326 29.4365 84.8043 29.3744 84.859C29.2749 84.9467 29.1388 84.9902 28.9995 84.9691L6.20569 81.4692C6.02699 81.4418 5.88021 81.313 5.82843 81.1396Z" fill="#F6C76F"/>
<path d="M31.1112 23.3341C31.1163 23.1999 31.1951 23.0842 31.3136 23.0379L34.9244 21.6272L29.0097 17.0013C28.911 16.9241 28.8577 16.7985 28.8707 16.6735C28.8836 16.5483 28.9608 16.4437 29.0717 16.4004L33.947 14.4957C34.0624 14.4506 34.1951 14.4791 34.2901 14.5694L42.6807 22.5613C42.7673 22.6436 42.8089 22.7655 42.7911 22.8833C42.7728 23.0013 42.698 23.0981 42.5922 23.1394L39.4589 24.3636L46.2618 31.7031C46.3779 31.8286 46.3933 32.021 46.2979 32.1552C46.2612 32.2067 46.2125 32.2438 46.1579 32.2651C46.0704 32.2993 45.9685 32.2928 45.8793 32.2406L31.29 23.665C31.1756 23.5978 31.1062 23.4687 31.1112 23.3341Z" fill="#F6C76F"/>
</svg>
