<svg width="175" height="119" viewBox="0 0 175 119" fill="none" xmlns="http://www.w3.org/2000/svg">
<path d="M165.895 60.5799C166.735 60.5799 167.411 59.8823 167.411 59.0144V54.3096C167.411 53.4417 166.735 52.7441 165.895 52.7441C165.054 52.7441 164.378 53.4417 164.378 54.3096V59.0144C164.378 59.8742 165.062 60.5799 165.895 60.5799Z" fill="#51BC7E"/>
<path d="M165.894 63.711C165.054 63.711 164.378 64.4086 164.378 65.2766V69.9813C164.378 70.8493 165.054 71.5469 165.894 71.5469C166.735 71.5469 167.411 70.8493 167.411 69.9813V65.2766C167.419 64.4167 166.735 63.711 165.894 63.711Z" fill="#51BC7E"/>
<path d="M158.313 63.711H162.87C163.71 63.711 164.386 63.0134 164.386 62.1455C164.386 61.2775 163.71 60.5799 162.87 60.5799H158.313C157.472 60.5799 156.797 61.2775 156.797 62.1455C156.797 63.0134 157.472 63.711 158.313 63.711Z" fill="#51BC7E"/>
<path d="M173.484 60.5799H168.927C168.086 60.5799 167.411 61.2775 167.411 62.1455C167.411 63.0134 168.086 63.711 168.927 63.711H173.484C174.324 63.711 175 63.0134 175 62.1455C175 61.2775 174.324 60.5799 173.484 60.5799Z" fill="#51BC7E"/>
<path d="M33.6718 112.275C32.4148 113.078 32.022 114.79 32.7997 116.088C33.5775 117.386 35.2352 117.791 36.4922 116.988C37.7492 116.185 38.1421 114.474 37.3643 113.176C36.5865 111.878 34.9367 111.472 33.6718 112.275Z" fill="#51BC7E"/>
<path d="M11.1712 29.5935C9.91415 30.3965 9.52133 32.1081 10.2991 33.4059C11.0769 34.7038 12.7346 35.1094 13.9916 34.3063C15.2486 33.5033 15.6414 31.7917 14.8637 30.4938C14.078 29.1879 12.4282 28.7904 11.1712 29.5935Z" fill="#51BC7E"/>
<path d="M110.719 69.1945C109.462 69.9976 109.069 71.7091 109.847 73.007C110.625 74.3048 112.283 74.7104 113.54 73.9074C114.797 73.1043 115.19 71.3928 114.412 70.0949C113.626 68.7889 111.976 68.3914 110.719 69.1945Z" fill="#51BC7E"/>
<path d="M10.5427 87.2267C12.1139 86.2209 13.2138 84.6553 13.6381 82.7977C14.0623 80.9402 13.7638 79.0258 12.7896 77.4116C11.8154 75.7974 10.2991 74.6536 8.50001 74.2156C6.70875 73.7776 4.84679 74.0858 3.28338 75.0917C1.71996 76.0975 0.612212 77.6631 0.187968 79.5206C-0.236275 81.3782 0.0622666 83.2925 1.03646 84.9068C2.34061 87.0888 4.6111 88.2893 6.92873 88.2893C8.16218 88.2893 9.4192 87.9486 10.5427 87.2267ZM4.39113 82.7653C3.97474 82.0677 3.84904 81.2484 4.02973 80.4535C4.21043 79.6585 4.68181 78.9853 5.35746 78.5553C6.03311 78.1254 6.8266 77.9956 7.59652 78.1822C8.36645 78.3688 9.01853 78.8555 9.43491 79.5531C9.8513 80.2507 9.977 81.07 9.79631 81.8649C9.61561 82.6598 9.14423 83.3331 8.46858 83.763C7.078 84.6472 5.25533 84.2011 4.39113 82.7653Z" fill="#51BC7E"/>
<path d="M154.636 117.937C156.208 116.932 157.307 115.366 157.732 113.508C158.156 111.651 157.857 109.737 156.883 108.122C155.909 106.5 154.393 105.364 152.594 104.926C150.802 104.488 148.94 104.797 147.377 105.802C145.806 106.808 144.706 108.374 144.282 110.231C143.857 112.089 144.156 114.003 145.13 115.617C146.434 117.799 148.705 119 151.022 119C152.248 119 153.505 118.659 154.636 117.937ZM148.485 113.476C148.068 112.778 147.943 111.959 148.123 111.164C148.304 110.369 148.775 109.696 149.451 109.266C150.127 108.836 150.92 108.706 151.69 108.893C152.46 109.079 153.112 109.566 153.529 110.264C153.945 110.961 154.071 111.781 153.89 112.576C153.709 113.371 153.238 114.044 152.562 114.474C151.172 115.358 149.341 114.912 148.485 113.476Z" fill="#51BC7E"/>
<path d="M97.6069 9.03044C96.9863 4.08233 92.5553 0.399647 92.3589 0.237414C91.9661 -0.0870518 91.4004 -0.0789401 91.0154 0.261749C90.8347 0.423982 86.7259 4.07422 86.1052 8.8682C83.0727 8.47885 80.3779 9.17645 80.2051 9.217C79.718 9.34679 79.3802 9.81727 79.4116 10.3364C79.4273 10.6203 79.8437 17.2475 84.1018 20.4597C85.5945 21.5873 87.4958 22.2362 89.7506 22.3984C89.7741 22.3984 89.7977 22.3984 89.8291 22.3984C89.9155 22.3984 90.002 22.3822 90.0805 22.366C90.6226 22.4552 91.7147 22.6012 93.0817 22.6012C95.3286 22.6012 98.2826 22.1956 100.592 20.4516C104.85 17.2475 105.267 10.6122 105.283 10.3283C105.314 9.80915 104.976 9.33868 104.489 9.20889C104.293 9.16834 101.017 8.31661 97.6069 9.03044ZM91.7304 2.58979C92.9324 3.7822 95.3129 6.51583 95.5407 9.68748C94.9122 9.96328 94.2994 10.304 93.718 10.7339C93.2074 11.1151 92.7517 11.5613 92.3432 12.0317C91.9189 11.545 91.4633 11.107 90.9683 10.7339C90.1041 10.085 89.1535 9.6307 88.1872 9.32246C88.5093 6.35359 90.6226 3.75787 91.7304 2.58979ZM81.6349 11.1557C83.3398 10.8718 87.103 10.5311 89.7191 12.5022C90.2062 12.8672 90.6541 13.3296 91.0626 13.8569C89.7584 16.1606 89.2085 18.7239 88.9964 20.1191C87.5429 19.9 86.3173 19.4296 85.3431 18.6914C82.7427 16.7365 81.8942 12.924 81.6349 11.1557ZM99.3353 18.6914C96.7349 20.6463 92.901 20.5003 91.1176 20.3056C91.424 18.4399 92.351 14.4652 94.9593 12.5022C97.5598 10.5473 101.339 10.8718 103.044 11.1557C102.792 12.924 101.936 16.7365 99.3353 18.6914Z" fill="#51BC7E"/>
<path d="M47.7344 38.0938C47.7344 36.0208 46.3646 34.9844 43.625 34.9844C41.9062 34.9844 40.1667 35.5052 38.4062 36.5469C37.8958 36.849 37.4948 37.1302 37.2031 37.3906C36.9219 37.6406 36.651 37.7656 36.3906 37.7656C36.1302 37.7656 35.8802 37.7031 35.6406 37.5781C35.401 37.4427 35.1875 37.276 35 37.0781C34.3125 36.3177 34.3854 35.5833 35.2188 34.875C36.4688 33.8021 38.5417 33.1094 41.4375 32.7969C42.0208 32.7344 42.7604 32.7031 43.6562 32.7031C44.5521 32.7031 45.4948 32.8646 46.4844 33.1875C47.4844 33.5104 48.3229 33.9479 49 34.5C50.3542 35.6146 51.0312 37.0365 51.0312 38.7656C51.0312 40.8177 50.0938 42.6875 48.2188 44.375C46.5938 45.8542 44.6719 46.9115 42.4531 47.5469C43.0573 48.0469 43.625 48.7656 44.1562 49.7031L45.4062 51.9375C46.5 53.9688 47.4792 55.0729 48.3438 55.25C48.6458 55.3021 48.9583 55.2917 49.2812 55.2188C49.6042 55.1458 49.8125 55.1146 49.9062 55.125C50.0104 55.125 50.0781 55.2083 50.1094 55.375C50.151 55.5417 50.1094 55.75 49.9844 56C49.8594 56.25 49.6562 56.4844 49.375 56.7031C48.7188 57.224 48 57.4531 47.2188 57.3906C46.4375 57.3385 45.8021 57.1823 45.3125 56.9219C44.8333 56.651 44.401 56.3125 44.0156 55.9062C43.6406 55.5 43.3021 55.0469 43 54.5469C42.7083 54.0469 42.4375 53.5365 42.1875 53.0156L41.4844 51.4844C41.2656 50.9844 41.0625 50.5573 40.875 50.2031C40.6875 49.8385 40.526 49.5104 40.3906 49.2188C40.2552 48.9167 40.1042 48.6458 39.9375 48.4062C39.5833 47.8646 39.1302 47.5208 38.5781 47.375C36.3906 53 34.1667 56.2083 31.9062 57C31.7188 57.0729 31.526 57.1094 31.3281 57.1094C31.1406 57.1094 30.9688 57.0729 30.8125 57C30.6562 56.9375 30.526 56.8542 30.4219 56.75C30.2031 56.5521 30.0938 56.3333 30.0938 56.0938C30.0938 55.8542 30.1719 55.6771 30.3281 55.5625C31.8906 54.4271 33.625 51.1146 35.5312 45.625L36.4688 42.9844C37.5417 39.9427 38.4479 38.0677 39.1875 37.3594C39.4479 37.1615 39.7188 37.0625 40 37.0625C40.2812 37.0625 40.526 37.1094 40.7344 37.2031C40.9427 37.2865 41.125 37.3958 41.2812 37.5312C41.6354 37.8438 41.8125 38.1615 41.8125 38.4844C41.8125 38.8073 41.7396 39.099 41.5938 39.3594C41.4583 39.6094 41.3021 39.9635 41.125 40.4219C40.6146 41.7552 40.2188 42.8229 39.9375 43.625L39.1406 45.875C41.3594 45.5833 43.3229 44.7135 45.0312 43.2656C46.8333 41.7448 47.7344 40.0208 47.7344 38.0938ZM52.2188 51.5312C52.2604 50.625 52.4115 49.7604 52.6719 48.9375C52.9323 48.1042 53.2812 47.3021 53.7188 46.5312C54.1562 45.75 54.6667 45.0156 55.25 44.3281C55.8438 43.6302 56.4844 43.0208 57.1719 42.5C58.6615 41.3854 60.1667 40.8281 61.6875 40.8281C63.4688 40.8281 64.6562 41.5625 65.25 43.0312C65.4583 43.5312 65.5573 44.125 65.5469 44.8125C65.5365 45.4896 65.4062 46.1198 65.1562 46.7031C64.9062 47.276 64.5573 47.8021 64.1094 48.2812C63.6719 48.75 63.1458 49.1719 62.5312 49.5469C61.9271 49.9219 61.2656 50.2396 60.5469 50.5C59.0677 51.0208 57.4844 51.2917 55.7969 51.3125C55.7552 51.4583 55.7292 51.6771 55.7188 51.9688C55.7083 52.2604 55.7396 52.5885 55.8125 52.9531C55.8854 53.3073 56.0104 53.625 56.1875 53.9062C56.5625 54.5312 57.1042 54.8438 57.8125 54.8438C59.0208 54.8438 60.1979 54.4896 61.3438 53.7812C61.75 53.5417 62.0781 53.2969 62.3281 53.0469C62.5885 52.7865 62.8125 52.6562 63 52.6562C63.1875 52.6562 63.349 52.7708 63.4844 53C63.6302 53.2188 63.7031 53.4688 63.7031 53.75C63.7031 54.3021 63.5469 54.7812 63.2344 55.1875C61.9219 56.5 59.9688 57.1562 57.375 57.1562C55.8438 57.1562 54.6146 56.6979 53.6875 55.7812C52.6458 54.7396 52.1562 53.3229 52.2188 51.5312ZM61.3438 42.9062C60.25 42.9062 59.1979 43.6562 58.1875 45.1562C57.3333 46.4479 56.6458 47.9792 56.125 49.75C57.8646 49.5729 59.375 48.8854 60.6562 47.6875C61.8333 46.5625 62.4219 45.4844 62.4219 44.4531C62.4219 43.4219 62.0625 42.9062 61.3438 42.9062ZM67.9219 56.375C67.6615 56.1042 67.4479 55.7604 67.2812 55.3438C67.125 54.9167 67.0469 54.4271 67.0469 53.875C67.0469 53.3125 67.1719 52.5625 67.4219 51.625C67.6823 50.6875 68.0104 49.6198 68.4062 48.4219L69.7188 44.5312C71.5833 39.1146 72.6615 34.9271 72.9531 31.9688C73.0469 31.0938 73.474 30.6562 74.2344 30.6562C74.7135 30.6562 75.1094 30.7708 75.4219 31C76.026 31.4583 76.3177 31.9688 76.2969 32.5312C76.276 33.0938 76.1771 33.7812 76 34.5938C75.8229 35.3958 75.5938 36.276 75.3125 37.2344C75.0312 38.1823 74.7083 39.1875 74.3438 40.25L72.1875 46.5938C70.9479 50.1979 70.3281 52.526 70.3281 53.5781C70.3281 54.1406 70.5573 54.4219 71.0156 54.4219C71.4531 54.4219 71.849 54.3281 72.2031 54.1406C72.5677 53.9531 72.8021 53.8594 72.9062 53.8594C73.125 53.8594 73.2344 53.9688 73.2344 54.1875C73.2344 55.1146 72.7604 55.8906 71.8125 56.5156C71.1771 56.9427 70.5938 57.1562 70.0625 57.1562C69.5417 57.1562 69.1198 57.0938 68.7969 56.9688C68.474 56.8438 68.1823 56.6458 67.9219 56.375ZM88.1562 52.8438C88.1562 53.8021 88.4948 54.2812 89.1719 54.2812C89.6406 54.2812 90.026 54.2083 90.3281 54.0625C90.6406 53.9167 90.849 53.8438 90.9531 53.8438C91.1719 53.8438 91.2812 53.9583 91.2812 54.1875C91.2812 55.0833 90.8125 55.8542 89.875 56.5C88.8854 57.1771 87.875 57.3438 86.8438 57C86.1667 56.7604 85.6667 56.2448 85.3438 55.4531C85.1875 55.0469 85.1094 54.6771 85.1094 54.3438C85.1094 53.8021 85.1615 53.2292 85.2656 52.625C84.2969 54.6042 83.0938 55.9688 81.6562 56.7188C81.0833 57.0104 80.474 57.1562 79.8281 57.1562C79.1823 57.1562 78.6198 57.026 78.1406 56.7656C77.6719 56.4948 77.2708 56.125 76.9375 55.6562C76.2604 54.6771 75.9531 53.4479 76.0156 51.9688C76.0781 50.1146 76.625 48.2969 77.6562 46.5156C78.6042 44.849 79.8021 43.4896 81.25 42.4375C82.6979 41.3646 84.0521 40.8281 85.3125 40.8281C86.5729 40.8281 87.5885 41.4062 88.3594 42.5625C89.0781 41.4062 89.7135 40.8281 90.2656 40.8281C90.8594 40.8281 91.3073 40.9375 91.6094 41.1562C92.1823 41.5729 92.3854 41.9375 92.2188 42.25C89.6042 47.6042 88.2604 50.9375 88.1875 52.25C88.1667 52.4375 88.1562 52.6354 88.1562 52.8438ZM79.4844 52.9062C79.4844 54.1562 79.8854 54.7812 80.6875 54.7812C81.3021 54.7812 82.0573 54.2604 82.9531 53.2188C84.2656 51.6875 85.4271 49.625 86.4375 47.0312C86.7604 46.2188 87.0312 45.4062 87.25 44.5938C87.2083 43.8854 86.9115 43.3646 86.3594 43.0312C86.1719 42.9167 85.8906 42.8594 85.5156 42.8594C85.151 42.8594 84.7188 42.9948 84.2188 43.2656C83.7292 43.5365 83.25 43.9062 82.7812 44.375C82.3229 44.8438 81.8906 45.401 81.4844 46.0469C81.0885 46.6823 80.7396 47.375 80.4375 48.125C79.8021 49.7292 79.4844 51.3229 79.4844 52.9062ZM94.1094 56.6562C93.6615 56.9792 93.3125 57.1406 93.0625 57.1406C92.8229 57.1406 92.6198 57.1042 92.4531 57.0312C92.2969 56.9688 92.151 56.8854 92.0156 56.7812C91.7031 56.5208 91.5469 56.2865 91.5469 56.0781C91.5469 55.8594 91.6615 55.6615 91.8906 55.4844C91.8906 55.4844 92.2083 55.2292 92.8438 54.7188C94.5521 53.3125 95.9635 51.7865 97.0781 50.1406C96.1719 47.599 95.7552 45.4844 95.8281 43.7969C95.8698 42.9635 96.2292 42.2448 96.9062 41.6406C97.5312 41.099 98.1979 40.8281 98.9062 40.8281C99.1146 40.8281 99.25 40.901 99.3125 41.0469C99.375 41.1927 99.4062 41.4062 99.4062 41.6875C99.4062 41.9583 99.3958 42.25 99.375 42.5625C99.3542 42.8646 99.349 43.1875 99.3594 43.5312C99.3802 43.8646 99.4062 44.2292 99.4375 44.625C99.5417 45.6875 99.6406 46.5156 99.7344 47.1094L100.25 46.25C101.438 44.3646 102.823 42.8698 104.406 41.7656C105.302 41.1406 106.073 40.8281 106.719 40.8281C107.302 40.8281 107.755 40.9115 108.078 41.0781C108.682 41.3906 108.885 41.7083 108.688 42.0312C108.656 42.0833 108.594 42.125 108.5 42.1562L108.109 42.3438C106.464 43.0625 104.365 44.8229 101.812 47.625C101.281 48.2083 100.818 48.7656 100.422 49.2969L100.969 51.125C101.646 53.3125 102.448 54.4062 103.375 54.4062C103.781 54.4062 104.115 54.3438 104.375 54.2188L104.938 53.9688C105.052 53.9167 105.161 53.8906 105.266 53.8906C105.484 53.8906 105.594 54 105.594 54.2188C105.594 55.1354 105.125 55.9062 104.188 56.5312C103.562 56.9479 102.854 57.1562 102.062 57.1562C100.531 57.1562 99.1458 55.5781 97.9062 52.4219C96.5938 54.349 95.3281 55.7604 94.1094 56.6562ZM132.922 36.4844C132.922 35.401 132.188 34.8594 130.719 34.8594C129.031 34.8594 127.438 35.6667 125.938 37.2812C125.052 38.2396 124.427 39.2812 124.062 40.4062C123.875 40.9479 123.781 41.4375 123.781 41.875C123.781 42.3125 123.828 42.6719 123.922 42.9531C124.026 43.224 124.156 43.4479 124.312 43.625C124.635 44.0104 125.01 44.1562 125.438 44.0625C125.948 43.8542 126.396 43.75 126.781 43.75C127.177 43.75 127.49 43.8021 127.719 43.9062C127.958 44 128.156 44.1198 128.312 44.2656C128.604 44.5573 128.75 44.8385 128.75 45.1094C128.75 45.6406 128.573 45.9167 128.219 45.9375C127.771 45.9688 127.229 46.1198 126.594 46.3906C125.969 46.6615 125.365 47.0104 124.781 47.4375C124.198 47.8542 123.677 48.3281 123.219 48.8594C122.177 50.0469 121.656 51.2552 121.656 52.4844C121.656 53.7656 122.161 54.6146 123.172 55.0312C123.505 55.1771 123.917 55.25 124.406 55.25C124.896 55.25 125.37 55.1458 125.828 54.9375C126.297 54.7188 126.703 54.4479 127.047 54.125C127.786 53.4167 128.167 52.6719 128.188 51.8906C128.208 50.901 127.802 50.2812 126.969 50.0312C126.75 49.9688 126.573 49.901 126.438 49.8281C126.312 49.7448 126.276 49.6146 126.328 49.4375C126.391 49.2604 126.51 49.0833 126.688 48.9062C127.125 48.4271 127.609 48.1875 128.141 48.1875C128.38 48.1875 128.74 48.2396 129.219 48.3438C130.115 48.5417 130.766 48.6406 131.172 48.6406C132.026 48.6406 132.698 48.5833 133.188 48.4688C133.677 48.3438 134.083 48.2396 134.406 48.1562C134.958 48 135.234 48.1302 135.234 48.5469C135.234 48.9635 135.12 49.349 134.891 49.7031C134.661 50.0469 134.354 50.349 133.969 50.6094C133.135 51.1615 132.115 51.4271 130.906 51.4062C130.938 51.5625 130.953 51.7188 130.953 51.875C130.953 52.4583 130.76 53.0625 130.375 53.6875C129.99 54.3125 129.469 54.8854 128.812 55.4062C127.323 56.5729 125.62 57.1562 123.703 57.1562C121.807 57.1562 120.365 56.625 119.375 55.5625C118.594 54.7188 118.203 53.7292 118.203 52.5938C118.203 50.3229 119.141 48.3073 121.016 46.5469C121.651 45.9427 122.255 45.526 122.828 45.2969C121.714 44.8281 120.969 43.9167 120.594 42.5625C120.479 42.125 120.422 41.6146 120.422 41.0312C120.422 40.4479 120.536 39.8177 120.766 39.1406C120.995 38.4531 121.318 37.7969 121.734 37.1719C122.161 36.5469 122.667 35.9635 123.25 35.4219C123.844 34.8698 124.5 34.3958 125.219 34C126.792 33.125 128.443 32.6875 130.172 32.6875C131.922 32.6875 133.26 33.2083 134.188 34.25C134.948 35.0938 135.328 36.1198 135.328 37.3281C135.328 38.599 134.792 39.8594 133.719 41.1094C132.677 42.3385 131.677 42.9531 130.719 42.9531C130.177 42.9531 129.688 42.724 129.25 42.2656C128.854 41.849 128.656 41.4792 128.656 41.1562C128.656 40.8333 128.745 40.625 128.922 40.5312C130.745 39.5417 131.964 38.5573 132.578 37.5781C132.807 37.2135 132.922 36.849 132.922 36.4844ZM31.7188 93.3125C31.8125 92.6354 32.0104 91.7031 32.3125 90.5156C32.625 89.3177 33.0208 88.0417 33.5 86.6875C34.5938 83.5833 35.8906 80.8177 37.3906 78.3906C37.599 78.0573 37.8646 77.8646 38.1875 77.8125C38.6458 77.75 39.0469 77.7188 39.3906 77.7188C39.7448 77.7188 40.0573 77.7604 40.3281 77.8438C40.6094 77.9167 40.8281 78.0156 40.9844 78.1406C41.2969 78.401 41.349 78.6771 41.1406 78.9688C39.2552 81.8125 37.6094 85.2812 36.2031 89.375C35.6719 90.9375 35.3542 92.026 35.25 92.6406C35.1458 93.2448 35.0677 93.6615 35.0156 93.8906C34.974 94.1094 34.9531 94.3021 34.9531 94.4688C34.9531 94.8125 35.1719 94.9844 35.6094 94.9844C36.0469 94.9844 36.5365 94.8854 37.0781 94.6875C37.6198 94.4792 38.2031 94.1927 38.8281 93.8281C39.4531 93.4531 40.099 93 40.7656 92.4688C41.4427 91.9375 42.1042 91.3438 42.75 90.6875C43.3958 90.0208 44.0052 89.3021 44.5781 88.5312C45.151 87.7604 45.651 86.9479 46.0781 86.0938C47.026 84.2188 47.5 82.3698 47.5 80.5469C47.5 78.0469 46.4844 76.3854 44.4531 75.5625C43.7448 75.2812 43.0052 75.1406 42.2344 75.1406C41.474 75.1406 40.8281 75.1927 40.2969 75.2969C39.7656 75.3906 39.2552 75.526 38.7656 75.7031C37.776 76.0573 36.9427 76.5312 36.2656 77.125C36.0885 77.2292 35.875 77.2812 35.625 77.2812C35.375 77.2812 35.1042 77.2083 34.8125 77.0625C34.5312 76.9167 34.276 76.7344 34.0469 76.5156C33.526 76.0052 33.3177 75.5156 33.4219 75.0469C33.5365 74.3802 34.5365 73.8021 36.4219 73.3125C38.0052 72.9062 39.599 72.7031 41.2031 72.7031C42.8073 72.7031 44.25 72.9219 45.5312 73.3594C46.8229 73.7969 47.8698 74.3854 48.6719 75.125C50.1719 76.5208 50.9219 78.3906 50.9219 80.7344C50.9219 83.8385 49.849 86.8333 47.7031 89.7188C45.7344 92.3958 43.3906 94.4271 40.6719 95.8125C38.9115 96.7083 37.2917 97.1562 35.8125 97.1562C34.6562 97.1562 33.6615 96.8177 32.8281 96.1406C31.9323 95.4219 31.5625 94.4792 31.7188 93.3125ZM51.6562 91.5312C51.6979 90.625 51.849 89.7604 52.1094 88.9375C52.3698 88.1042 52.7188 87.3021 53.1562 86.5312C53.5938 85.75 54.1042 85.0156 54.6875 84.3281C55.2812 83.6302 55.9219 83.0208 56.6094 82.5C58.099 81.3854 59.6042 80.8281 61.125 80.8281C62.9062 80.8281 64.0938 81.5625 64.6875 83.0312C64.8958 83.5312 64.9948 84.125 64.9844 84.8125C64.974 85.4896 64.8438 86.1198 64.5938 86.7031C64.3438 87.276 63.9948 87.8021 63.5469 88.2812C63.1094 88.75 62.5833 89.1719 61.9688 89.5469C61.3646 89.9219 60.7031 90.2396 59.9844 90.5C58.5052 91.0208 56.9219 91.2917 55.2344 91.3125C55.1927 91.4583 55.1667 91.6771 55.1562 91.9688C55.1458 92.2604 55.1771 92.5885 55.25 92.9531C55.3229 93.3073 55.4479 93.625 55.625 93.9062C56 94.5312 56.5417 94.8438 57.25 94.8438C58.4583 94.8438 59.6354 94.4896 60.7812 93.7812C61.1875 93.5417 61.5156 93.2969 61.7656 93.0469C62.026 92.7865 62.25 92.6562 62.4375 92.6562C62.625 92.6562 62.7865 92.7708 62.9219 93C63.0677 93.2188 63.1406 93.4688 63.1406 93.75C63.1406 94.3021 62.9844 94.7812 62.6719 95.1875C61.3594 96.5 59.4062 97.1562 56.8125 97.1562C55.2812 97.1562 54.0521 96.6979 53.125 95.7812C52.0833 94.7396 51.5938 93.3229 51.6562 91.5312ZM60.7812 82.9062C59.6875 82.9062 58.6354 83.6562 57.625 85.1562C56.7708 86.4479 56.0833 87.9792 55.5625 89.75C57.3021 89.5729 58.8125 88.8854 60.0938 87.6875C61.2708 86.5625 61.8594 85.4844 61.8594 84.4531C61.8594 83.4219 61.5 82.9062 60.7812 82.9062ZM65.8438 94.25C65.8438 93.9271 65.9115 93.6302 66.0469 93.3594C66.1927 93.0781 66.3698 92.8438 66.5781 92.6562C67.0156 92.25 67.474 92.0469 67.9531 92.0469C68.3698 92.0469 68.5781 92.2604 68.5781 92.6875C68.5781 93.7708 68.9375 94.526 69.6562 94.9531C69.9167 95.1094 70.1875 95.1875 70.4688 95.1875C70.75 95.1875 70.9896 95.1562 71.1875 95.0938C71.3854 95.0312 71.5677 94.9323 71.7344 94.7969C72.1094 94.4948 72.2969 94.1354 72.2969 93.7188C72.2969 93.3021 72.2031 92.9219 72.0156 92.5781C71.8281 92.224 71.5938 91.8542 71.3125 91.4688L70.4219 90.2188C69.1719 88.5521 68.5469 87.0156 68.5469 85.6094C68.5469 84.4427 69.0417 83.3854 70.0312 82.4375C71.1562 81.3646 72.599 80.8281 74.3594 80.8281C75.901 80.8281 77.1042 81.2083 77.9688 81.9688C78.6771 82.5833 79.0312 83.2865 79.0312 84.0781C79.0312 84.901 78.7188 85.5573 78.0938 86.0469C77.5312 86.4844 76.9688 86.6458 76.4062 86.5312C76.1562 86.4792 75.9635 86.3542 75.8281 86.1562C75.6927 85.9479 75.6667 85.7135 75.75 85.4531C75.8333 85.1927 75.875 84.9219 75.875 84.6406C75.875 84.3594 75.8229 84.099 75.7188 83.8594C75.6146 83.6198 75.474 83.4167 75.2969 83.25C74.9323 82.9062 74.5469 82.7344 74.1406 82.7344C73.7448 82.7344 73.4167 82.7812 73.1562 82.875C72.8958 82.9583 72.6667 83.0833 72.4688 83.25C72.0625 83.625 71.8594 84.0885 71.8594 84.6406C71.8594 85.1823 71.9531 85.651 72.1406 86.0469C72.3281 86.4427 72.5573 86.8385 72.8281 87.2344C73.1094 87.6302 73.4115 88.0312 73.7344 88.4375C74.0573 88.8438 74.3542 89.2708 74.625 89.7188C75.2812 90.7708 75.6094 91.6979 75.6094 92.5C75.6094 93.2917 75.4427 93.9583 75.1094 94.5C74.776 95.0312 74.3438 95.4896 73.8125 95.875C72.6771 96.7188 71.4062 97.1406 70 97.1406C68.6562 97.1406 67.5938 96.8177 66.8125 96.1719C66.1667 95.6302 65.8438 94.9896 65.8438 94.25ZM89.25 92.9062C89.5521 92.9062 89.7031 93.1094 89.7031 93.5156C89.7031 93.8594 89.599 94.1927 89.3906 94.5156C89.1094 95.1198 88.5469 95.6927 87.7031 96.2344C86.7448 96.849 85.7812 97.1562 84.8125 97.1562C83.1354 97.1562 82.0729 96.4062 81.625 94.9062C81.0938 93.125 81.8906 89.349 84.0156 83.5781C82.8177 83.474 82.1667 83.2656 82.0625 82.9531C82.0312 82.8594 82.0156 82.7604 82.0156 82.6562C82.0156 82.5417 82.0625 82.4115 82.1562 82.2656C82.2604 82.1198 82.3906 81.9792 82.5469 81.8438C82.9115 81.5417 83.2812 81.3906 83.6562 81.3906H84.8906C86.0156 78.7552 86.8177 77.2552 87.2969 76.8906C87.526 76.724 87.7812 76.6406 88.0625 76.6406C88.3438 76.6406 88.5781 76.6771 88.7656 76.75C88.9531 76.8229 89.1198 76.9271 89.2656 77.0625C89.599 77.375 89.7656 77.724 89.7656 78.1094C89.7656 78.3177 89.7031 78.5573 89.5781 78.8281L88.4219 81.3438H88.7969C89.4427 81.3438 89.9635 81.3385 90.3594 81.3281C90.3594 81.3281 90.6562 81.3229 91.25 81.3125C91.4479 81.3021 91.6927 81.2969 91.9844 81.2969C92.2865 81.2969 92.4375 81.4062 92.4375 81.625C92.4375 83 90.8125 83.6875 87.5625 83.6875H87.4375L86.375 86.4375C85.1771 89.6875 84.5781 91.9635 84.5781 93.2656C84.5781 93.6302 84.6615 93.9167 84.8281 94.125C84.9948 94.3229 85.3073 94.4219 85.7656 94.4219C86.224 94.4219 86.6406 94.3438 87.0156 94.1875C87.3906 94.0312 87.7188 93.8594 88 93.6719C88.2812 93.474 88.5208 93.2969 88.7188 93.1406C88.9271 92.9844 89.1042 92.9062 89.25 92.9062ZM91.7188 96.625C91.5104 96.4688 91.3438 96.2969 91.2188 96.1094C91.0938 95.9115 91.026 95.7448 91.0156 95.6094C91.0052 95.4635 91.0312 95.2917 91.0938 95.0938C91.1667 94.8854 91.2604 94.6354 91.375 94.3438C93.5 89.1146 94.5625 85.6042 94.5625 83.8125C94.5312 83.3125 94.3594 82.9583 94.0469 82.75L93.7344 82.5312C93.6406 82.4583 93.5885 82.3333 93.5781 82.1562C93.5781 81.9688 93.6458 81.7917 93.7812 81.625C93.9167 81.4583 94.0938 81.3125 94.3125 81.1875C94.7604 80.9479 95.2188 80.8281 95.6875 80.8281C96.1667 80.8281 96.5365 80.8802 96.7969 80.9844C97.0677 81.0885 97.2969 81.2292 97.4844 81.4062C97.8802 81.7812 98.0781 82.1771 98.0781 82.5938C98.0885 83.0104 98.0417 83.4323 97.9375 83.8594C97.8438 84.2865 97.7292 84.7083 97.5938 85.125C97.4583 85.5312 97.3229 85.9219 97.1875 86.2969C97.0521 86.6615 96.9635 86.9323 96.9219 87.1094C96.8385 87.474 96.8073 87.7031 96.8281 87.7969C97.0781 87.5781 97.2292 87.3646 97.2812 87.1562L97.8906 86C99.2448 83.5625 100.568 81.9479 101.859 81.1562C102.234 80.9375 102.682 80.8281 103.203 80.8281C103.734 80.8281 104.161 81.0156 104.484 81.3906C104.807 81.7552 104.974 82.1615 104.984 82.6094C105.005 83.0573 104.974 83.4323 104.891 83.7344C104.818 84.026 104.703 84.3021 104.547 84.5625C104.203 85.1458 103.786 85.4375 103.297 85.4375C103.161 85.4375 103.036 85.3906 102.922 85.2969L102.578 85C102.234 84.6979 101.901 84.5469 101.578 84.5469C101.266 84.5469 100.88 84.7552 100.422 85.1719C99.974 85.5885 99.5052 86.125 99.0156 86.7812C97.3698 88.9583 96.026 91.3958 94.9844 94.0938L94.2969 95.9062C94.1198 96.3542 93.9635 96.6771 93.8281 96.875C93.6927 97.0625 93.4896 97.1562 93.2188 97.1562C92.9583 97.1562 92.6927 97.1042 92.4219 97C92.1615 96.9062 91.9271 96.7812 91.7188 96.625ZM104.875 91.5312C104.917 90.625 105.068 89.7604 105.328 88.9375C105.589 88.1042 105.938 87.3021 106.375 86.5312C106.812 85.75 107.323 85.0156 107.906 84.3281C108.5 83.6302 109.141 83.0208 109.828 82.5C111.318 81.3854 112.823 80.8281 114.344 80.8281C116.125 80.8281 117.312 81.5625 117.906 83.0312C118.115 83.5312 118.214 84.125 118.203 84.8125C118.193 85.4896 118.062 86.1198 117.812 86.7031C117.562 87.276 117.214 87.8021 116.766 88.2812C116.328 88.75 115.802 89.1719 115.188 89.5469C114.583 89.9219 113.922 90.2396 113.203 90.5C111.724 91.0208 110.141 91.2917 108.453 91.3125C108.411 91.4583 108.385 91.6771 108.375 91.9688C108.365 92.2604 108.396 92.5885 108.469 92.9531C108.542 93.3073 108.667 93.625 108.844 93.9062C109.219 94.5312 109.76 94.8438 110.469 94.8438C111.677 94.8438 112.854 94.4896 114 93.7812C114.406 93.5417 114.734 93.2969 114.984 93.0469C115.245 92.7865 115.469 92.6562 115.656 92.6562C115.844 92.6562 116.005 92.7708 116.141 93C116.286 93.2188 116.359 93.4688 116.359 93.75C116.359 94.3021 116.203 94.7812 115.891 95.1875C114.578 96.5 112.625 97.1562 110.031 97.1562C108.5 97.1562 107.271 96.6979 106.344 95.7812C105.302 94.7396 104.812 93.3229 104.875 91.5312ZM114 82.9062C112.906 82.9062 111.854 83.6562 110.844 85.1562C109.99 86.4479 109.302 87.9792 108.781 89.75C110.521 89.5729 112.031 88.8854 113.312 87.6875C114.49 86.5625 115.078 85.4844 115.078 84.4531C115.078 83.4219 114.719 82.9062 114 82.9062ZM119.062 94.25C119.062 93.9271 119.13 93.6302 119.266 93.3594C119.411 93.0781 119.589 92.8438 119.797 92.6562C120.234 92.25 120.693 92.0469 121.172 92.0469C121.589 92.0469 121.797 92.2604 121.797 92.6875C121.797 93.7708 122.156 94.526 122.875 94.9531C123.135 95.1094 123.406 95.1875 123.688 95.1875C123.969 95.1875 124.208 95.1562 124.406 95.0938C124.604 95.0312 124.786 94.9323 124.953 94.7969C125.328 94.4948 125.516 94.1354 125.516 93.7188C125.516 93.3021 125.422 92.9219 125.234 92.5781C125.047 92.224 124.812 91.8542 124.531 91.4688L123.641 90.2188C122.391 88.5521 121.766 87.0156 121.766 85.6094C121.766 84.4427 122.26 83.3854 123.25 82.4375C124.375 81.3646 125.818 80.8281 127.578 80.8281C129.12 80.8281 130.323 81.2083 131.188 81.9688C131.896 82.5833 132.25 83.2865 132.25 84.0781C132.25 84.901 131.938 85.5573 131.312 86.0469C130.75 86.4844 130.188 86.6458 129.625 86.5312C129.375 86.4792 129.182 86.3542 129.047 86.1562C128.911 85.9479 128.885 85.7135 128.969 85.4531C129.052 85.1927 129.094 84.9219 129.094 84.6406C129.094 84.3594 129.042 84.099 128.938 83.8594C128.833 83.6198 128.693 83.4167 128.516 83.25C128.151 82.9062 127.766 82.7344 127.359 82.7344C126.964 82.7344 126.635 82.7812 126.375 82.875C126.115 82.9583 125.885 83.0833 125.688 83.25C125.281 83.625 125.078 84.0885 125.078 84.6406C125.078 85.1823 125.172 85.651 125.359 86.0469C125.547 86.4427 125.776 86.8385 126.047 87.2344C126.328 87.6302 126.63 88.0312 126.953 88.4375C127.276 88.8438 127.573 89.2708 127.844 89.7188C128.5 90.7708 128.828 91.6979 128.828 92.5C128.828 93.2917 128.661 93.9583 128.328 94.5C127.995 95.0312 127.562 95.4896 127.031 95.875C125.896 96.7188 124.625 97.1406 123.219 97.1406C121.875 97.1406 120.812 96.8177 120.031 96.1719C119.385 95.6302 119.062 94.9896 119.062 94.25ZM132.625 94.25C132.625 93.9271 132.693 93.6302 132.828 93.3594C132.974 93.0781 133.151 92.8438 133.359 92.6562C133.797 92.25 134.255 92.0469 134.734 92.0469C135.151 92.0469 135.359 92.2604 135.359 92.6875C135.359 93.7708 135.719 94.526 136.438 94.9531C136.698 95.1094 136.969 95.1875 137.25 95.1875C137.531 95.1875 137.771 95.1562 137.969 95.0938C138.167 95.0312 138.349 94.9323 138.516 94.7969C138.891 94.4948 139.078 94.1354 139.078 93.7188C139.078 93.3021 138.984 92.9219 138.797 92.5781C138.609 92.224 138.375 91.8542 138.094 91.4688L137.203 90.2188C135.953 88.5521 135.328 87.0156 135.328 85.6094C135.328 84.4427 135.823 83.3854 136.812 82.4375C137.938 81.3646 139.38 80.8281 141.141 80.8281C142.682 80.8281 143.885 81.2083 144.75 81.9688C145.458 82.5833 145.812 83.2865 145.812 84.0781C145.812 84.901 145.5 85.5573 144.875 86.0469C144.312 86.4844 143.75 86.6458 143.188 86.5312C142.938 86.4792 142.745 86.3542 142.609 86.1562C142.474 85.9479 142.448 85.7135 142.531 85.4531C142.615 85.1927 142.656 84.9219 142.656 84.6406C142.656 84.3594 142.604 84.099 142.5 83.8594C142.396 83.6198 142.255 83.4167 142.078 83.25C141.714 82.9062 141.328 82.7344 140.922 82.7344C140.526 82.7344 140.198 82.7812 139.938 82.875C139.677 82.9583 139.448 83.0833 139.25 83.25C138.844 83.625 138.641 84.0885 138.641 84.6406C138.641 85.1823 138.734 85.651 138.922 86.0469C139.109 86.4427 139.339 86.8385 139.609 87.2344C139.891 87.6302 140.193 88.0312 140.516 88.4375C140.839 88.8438 141.135 89.2708 141.406 89.7188C142.062 90.7708 142.391 91.6979 142.391 92.5C142.391 93.2917 142.224 93.9583 141.891 94.5C141.557 95.0312 141.125 95.4896 140.594 95.875C139.458 96.7188 138.188 97.1406 136.781 97.1406C135.438 97.1406 134.375 96.8177 133.594 96.1719C132.948 95.6302 132.625 94.9896 132.625 94.25Z" fill="#51BC7E"/>
</svg>
