<svg width="40" height="30" viewBox="0 0 40 30" fill="none" xmlns="http://www.w3.org/2000/svg">
<path d="M25.8377 13.228L17.1086 8.44011C16.6067 8.16481 16.0134 8.17509 15.5215 8.4673C15.0292 8.75982 14.7356 9.27656 14.7356 9.85012V19.3436C14.7356 19.9145 15.0274 20.4303 15.5163 20.7231C15.7717 20.876 16.0547 20.9528 16.3384 20.9528C16.5982 20.9528 16.8587 20.8884 17.0983 20.7591L25.8278 16.0537C26.346 15.7742 26.6694 15.2342 26.6719 14.644C26.674 14.0539 26.3544 13.5114 25.8377 13.228ZM17.051 18.1494V11.054L23.575 14.6325L17.051 18.1494Z" fill="#DDDDDD"/>
<path d="M39.2213 7.08056L39.2195 7.06243C39.186 6.74362 38.8529 3.90789 37.4777 2.46555C35.8881 0.769068 34.0861 0.562976 33.2194 0.464161C33.1476 0.456001 33.0819 0.448447 33.0231 0.44059L32.9541 0.433337C27.7306 0.0525807 19.8419 0.000604376 19.7629 0.000302188L19.7559 0L19.749 0.000302188C19.67 0.000604376 11.7813 0.0525807 6.51076 0.433337L6.44112 0.44059C6.38505 0.448145 6.32325 0.455095 6.25603 0.462952C5.3993 0.562069 3.61652 0.768464 2.02244 2.52629C0.712632 3.95322 0.334009 6.72821 0.295121 7.04007L0.2906 7.08056C0.278843 7.21322 0 10.3714 0 13.5419V16.5058C0 19.6764 0.278843 22.8345 0.2906 22.9675L0.29271 22.9874C0.326171 23.3011 0.658974 26.0849 2.02787 27.5278C3.52246 29.1675 5.41227 29.3844 6.42876 29.5011C6.58944 29.5195 6.7278 29.5352 6.82216 29.5519L6.9135 29.5645C9.92952 29.8522 19.3858 29.994 19.7867 29.9997L19.7988 30L19.8108 29.9997C19.8898 29.9994 27.7782 29.9474 33.0017 29.5667L33.0708 29.5594C33.1368 29.5506 33.2109 29.5428 33.2923 29.5343C34.1442 29.4437 35.9174 29.2554 37.4895 27.5215C38.7993 26.0942 39.1782 23.3192 39.2168 23.0077L39.2213 22.9672C39.2331 22.8342 39.5122 19.6764 39.5122 16.5058V13.5419C39.5119 10.3714 39.2331 7.21353 39.2213 7.08056ZM37.1964 16.5058C37.1964 19.4403 36.9408 22.4625 36.9167 22.7399C36.8184 23.5042 36.419 25.2599 35.7808 25.9552C34.7969 27.0404 33.7861 27.148 33.0482 27.2262C32.9589 27.2356 32.8763 27.2447 32.8016 27.254C27.7492 27.6203 20.1584 27.6765 19.8087 27.6786C19.4165 27.6729 10.0986 27.5299 7.17455 27.2576C7.02473 27.2332 6.86285 27.2144 6.69223 27.1951C5.82676 27.0957 4.64206 26.9597 3.73107 25.9552L3.70967 25.9322C3.08265 25.2774 2.69468 23.6356 2.5961 22.749C2.57771 22.5393 2.31545 19.4814 2.31545 16.5058V13.5419C2.31545 10.6107 2.57048 7.59187 2.5952 7.30871C2.71246 6.4085 3.11942 4.75916 3.73107 4.09253C4.74515 2.97443 5.8144 2.85054 6.52161 2.76865C6.58913 2.76079 6.65214 2.75354 6.71032 2.74598C11.8362 2.37792 19.4816 2.32322 19.7559 2.3211C20.0303 2.32292 27.673 2.37792 32.7533 2.74598C32.8157 2.75384 32.8839 2.76169 32.9571 2.77016C33.6845 2.85326 34.7839 2.97897 35.7929 4.05778L35.8022 4.06775C36.4292 4.72259 36.8172 6.39309 36.9158 7.29753C36.9333 7.49547 37.1964 10.56 37.1964 13.5419V16.5058Z" fill="#DDDDDD"/>
</svg>
